<?xml version="1.0" encoding="UTF-8"?>
<svg version="1.1" xmlns="http://www.w3.org/2000/svg" width="1920" height="909">
<path d="M0 0 C633.6 0 1267.2 0 1920 0 C1920 299.97 1920 599.94 1920 909 C1286.4 909 652.8 909 0 909 C0 609.03 0 309.06 0 0 Z " fill="#222222" transform="translate(0,0)"/>
<path d="M0 0 C1.11592377 -0.00352835 1.11592377 -0.00352835 2.25439146 -0.00712797 C4.76713946 -0.01382711 7.27983586 -0.01335947 9.79259205 -0.01294994 C11.60439264 -0.016248 13.41619249 -0.01997344 15.2279914 -0.02409142 C20.22246203 -0.03412616 25.21692063 -0.03783058 30.21139991 -0.04048073 C35.59192376 -0.0443794 40.97243806 -0.05395802 46.35295582 -0.0626936 C59.35445064 -0.08247007 72.35594626 -0.09252558 85.35745236 -0.10142139 C91.47655759 -0.10580223 97.59566196 -0.11116955 103.7147665 -0.11641026 C124.04987089 -0.13342348 144.38497473 -0.14791847 164.72008514 -0.155159 C169.99895891 -0.15706896 175.27783268 -0.15898929 180.55670643 -0.16094494 C181.86878194 -0.16142868 183.18085745 -0.16191242 184.53269283 -0.16241082 C205.79553001 -0.17071413 227.05831099 -0.19605572 248.32112362 -0.22852562 C270.13953779 -0.26157297 291.95792338 -0.27960564 313.77636272 -0.28280324 C326.03134699 -0.28497045 338.2862493 -0.29375009 350.54120922 -0.31926441 C360.97643234 -0.34093963 371.41155358 -0.34903748 381.84679665 -0.33929763 C387.17231397 -0.33474377 392.49762097 -0.33670229 397.82310963 -0.35605907 C402.6981597 -0.37362582 407.572845 -0.37274584 412.4478986 -0.35716178 C414.21173943 -0.35477583 415.97560509 -0.35916017 417.73940786 -0.37099043 C434.13120218 -0.47412617 434.13120218 -0.47412617 440.78155994 4.13422108 C442.84015369 6.16937733 442.84015369 6.16937733 444.21905994 8.19672108 C444.69214588 8.86832264 445.16523182 9.5399242 445.65265369 10.23187733 C448.31060347 14.71084459 447.92298137 19.22191123 447.91298771 24.25518703 C447.91504034 25.20481821 447.91709298 26.15444939 447.91920781 27.13285726 C447.92490508 30.34528956 447.92341721 33.55767936 447.92200184 36.77011585 C447.92458392 39.08442909 447.92759663 41.39874189 447.93100524 43.71305406 C447.93824708 49.42604209 447.94077877 55.13901892 447.9413343 60.85201121 C447.94224704 67.69262488 447.94891194 74.53322988 447.95568112 81.37383982 C447.9717533 97.90956597 447.97764589 114.4452912 447.98242987 130.98102376 C447.98476471 138.80193466 447.98836725 146.62284483 447.99212524 154.44375517 C448.00496215 181.20963869 448.01568097 207.97552181 448.01912785 234.74140835 C448.01934948 236.4221438 448.01957126 238.10287926 448.0197932 239.78361472 C448.02001384 241.46844031 448.02023432 243.1532659 448.02045465 244.83809149 C448.0208972 248.21821412 448.02134432 251.59833674 448.02179432 254.97845936 C448.02195841 256.23557351 448.02195841 256.23557351 448.02212581 257.51808391 C448.02575649 284.69315595 448.04167626 311.86820131 448.06498468 339.04326312 C448.08957598 367.76648183 448.10330037 396.48968529 448.10449576 425.21291482 C448.10466722 428.36556109 448.10488265 431.51820735 448.1051302 434.67085361 C448.10518596 435.44713788 448.10524173 436.22342214 448.10529919 437.02323017 C448.10645029 449.52104682 448.11747737 462.01883613 448.13201725 474.51664354 C448.14637765 487.07732905 448.14962183 499.63797947 448.14157727 512.19867094 C448.13751141 519.00473825 448.13863739 525.81070794 448.15263462 532.61676502 C448.16532799 538.8456938 448.16421614 545.07446083 448.15204391 551.30338924 C448.15007898 553.55849341 448.15320185 555.81360887 448.16188827 558.06869717 C448.17294231 561.13206446 448.16551911 564.19485707 448.15349674 567.25820827 C448.16109194 568.13534975 448.16868713 569.01249122 448.17651248 569.91621274 C448.11646102 576.99594368 446.86341164 583.77517538 442.46905994 589.50922108 C436.22417482 595.60887631 429.76959198 596.25705849 421.37949371 596.26844215 C420.27023865 596.2719705 420.27023865 596.2719705 419.13857439 596.27557012 C416.65299293 596.28224336 414.16746394 596.28180241 411.68187428 596.2813921 C409.88484677 596.28469174 408.08782001 596.28841752 406.29079419 596.29253358 C401.34644855 596.30254982 396.40211504 596.30626975 391.45776069 596.30892289 C386.12771551 596.31282692 380.79767993 596.32240502 375.46764088 596.33113575 C362.59453168 596.35089483 349.72142171 596.36096455 336.84830114 596.36986354 C330.78797588 596.37424636 324.7276515 596.37961309 318.66732693 596.38485241 C298.52601236 596.40186227 278.38469833 596.41635775 258.24337769 596.42360115 C253.01709143 596.42551107 247.79080517 596.4274314 242.56451893 596.42938709 C241.26553688 596.42987083 239.96655483 596.43035457 238.62820969 596.43085297 C217.57242825 596.43915827 196.51670353 596.46450472 175.46094688 596.49696777 C153.85039166 596.53001506 132.2398653 596.5480477 110.62928468 596.55124539 C98.49281948 596.55341238 86.35643705 596.56218895 74.21999645 596.58770657 C63.88729539 596.60938151 53.55469722 596.61747968 43.221976 596.60773978 C37.94910091 596.60318613 32.67643825 596.60514331 27.40359211 596.62450123 C22.57673163 596.64206907 17.75023957 596.64118712 12.92337552 596.62560394 C11.17709095 596.62321819 9.43078129 596.62760132 7.68453517 596.63943259 C-10.19318456 596.75305783 -10.19318456 596.75305783 -16.71607429 590.75770837 C-22.25557541 584.73107969 -22.51147555 578.32447452 -22.47570896 570.59446621 C-22.47921504 569.63600878 -22.48272111 568.67755136 -22.48633343 567.69004977 C-22.49566671 564.46562311 -22.49071909 561.24137629 -22.48586559 558.01694202 C-22.48960087 555.68695153 -22.49420189 553.35696228 -22.49959624 551.02697504 C-22.51057034 545.28687883 -22.51219452 539.54683264 -22.50987453 533.80672764 C-22.50760236 526.93130577 -22.51688242 520.05591172 -22.52643326 513.18049784 C-22.54578211 498.92533954 -22.5514018 484.67019561 -22.55254738 470.41502573 C-22.55346616 459.40789197 -22.55758127 448.40076386 -22.56394863 437.39363194 C-22.56574369 434.22623234 -22.56752332 431.05883273 -22.56929839 427.89143312 C-22.56974048 427.10403029 -22.57018258 426.31662745 -22.57063807 425.50536393 C-22.58294752 403.35536755 -22.59083909 381.20537314 -22.58995152 359.05537319 C-22.58992036 358.22015499 -22.5898892 357.38493679 -22.5898571 356.52440894 C-22.58969088 352.29108726 -22.5894928 348.05776557 -22.58928768 343.82444389 C-22.58924779 342.9836766 -22.5892079 342.1429093 -22.5891668 341.27666421 C-22.58908593 339.57642812 -22.58900233 337.87619203 -22.58891602 336.17595593 C-22.58769028 309.71801193 -22.60270754 283.26011917 -22.63006115 256.80218983 C-22.66077304 227.08362985 -22.67799421 197.36510355 -22.67613471 167.64652669 C-22.67598544 164.47849838 -22.67588803 161.31047007 -22.67582607 158.14244175 C-22.67580276 157.36238011 -22.67577946 156.58231848 -22.67575544 155.77861861 C-22.67569386 143.2184635 -22.68847243 130.65835283 -22.7056906 118.09821093 C-22.72263279 105.47852756 -22.724632 92.85890931 -22.71147196 80.23922087 C-22.70472547 73.40083401 -22.7043644 66.56259428 -22.72217846 59.72422314 C-22.73783725 53.46704809 -22.73511916 47.21016324 -22.7176102 40.95299558 C-22.71452443 38.6865591 -22.71823151 36.42010134 -22.72933035 34.15368994 C-22.74340061 31.0773259 -22.73290442 28.00198694 -22.71621799 24.92565823 C-22.72615435 24.04193425 -22.73609071 23.15821027 -22.74632818 22.24770677 C-22.66852392 15.48135297 -21.02321252 9.97129418 -16.18328381 5.07562733 C-15.51426037 4.62058826 -14.84523693 4.1655492 -14.15594006 3.69672108 C-13.48433849 3.22363514 -12.81273693 2.7505492 -12.12078381 2.26312733 C-8.1547715 -0.09042002 -4.45838022 -0.00950717 0 0 Z " fill="#19A5A1" transform="translate(747.2184400558472,99.86577892303467)"/>
<path d="M0 0 C1.11473839 -0.00453111 2.22947679 -0.00906223 3.37799513 -0.01373065 C7.09714236 -0.02634714 10.81614264 -0.02475604 14.53530884 -0.02310181 C17.20841511 -0.02908869 19.88151006 -0.03583844 22.55461121 -0.04345703 C29.05220556 -0.06002427 35.54976362 -0.0655646 42.04737733 -0.06668179 C47.33120788 -0.06763411 52.61502652 -0.07175359 57.8988533 -0.07808304 C72.89710898 -0.09568229 87.8953361 -0.10492375 102.89360218 -0.10342209 C104.10480899 -0.10330222 104.10480899 -0.10330222 105.34048462 -0.10317993 C106.55317898 -0.10305729 106.55317898 -0.10305729 107.79037221 -0.10293217 C120.8933006 -0.10211922 133.99611405 -0.12126264 147.0990092 -0.14945666 C160.57023325 -0.17821339 174.04140129 -0.19199549 187.51265681 -0.19026911 C195.06887523 -0.18960627 202.62497309 -0.19505249 210.18116379 -0.21662521 C216.61384624 -0.23487359 223.04635344 -0.23915433 229.47905062 -0.22560637 C232.75749833 -0.21909552 236.03554193 -0.22108292 239.31397057 -0.23631287 C242.87668502 -0.25178853 246.43852458 -0.24244062 250.0012207 -0.22705078 C251.02526925 -0.23733791 252.04931781 -0.24762503 253.10439813 -0.25822389 C262.72713546 -0.16672762 271.77237349 2.27018653 278.83462524 9.09945679 C284.55697827 16.01864182 287.60720454 23.30154627 287.07681274 32.31820679 C285.74199684 41.08156339 282.52854232 48.51446105 275.62759399 54.26742554 C269.59917415 57.99222732 263.98543597 60.38814789 256.86576557 60.3988533 C255.90541788 60.40269445 254.9450702 60.40653559 253.95562106 60.41049314 C252.37729056 60.40919341 252.37729056 60.40919341 250.76707458 60.40786743 C249.64703008 60.41083855 248.52698557 60.41380968 247.37300032 60.41687083 C243.60605074 60.42556797 239.83913291 60.42706695 236.07217407 60.42855835 C233.37686004 60.43318582 230.68154891 60.43818975 227.98623657 60.44360352 C220.65346003 60.45718247 213.32068895 60.463211 205.98790193 60.46761417 C201.40809339 60.47037759 196.82828696 60.47461515 192.24847984 60.47911835 C179.56523299 60.49131092 166.88198782 60.50160995 154.19873524 60.50499344 C152.98120241 60.50532279 152.98120241 60.50532279 151.73907296 60.50565879 C150.9254538 60.50587707 150.11183463 60.50609535 149.27356035 60.50632024 C147.62488862 60.5067637 145.97621689 60.50721027 144.32754517 60.50765991 C143.5097489 60.50788134 142.69195264 60.50810277 141.84937467 60.50833091 C128.60253765 60.51227767 115.35575568 60.52972802 102.10893992 60.55301943 C88.50454835 60.5767462 74.90018438 60.58919591 61.29577178 60.59036136 C53.6590781 60.59127742 46.02245614 60.59701242 38.38578224 60.61518097 C31.88194881 60.63059992 25.37820925 60.6356919 18.87436102 60.62744287 C15.55774344 60.6235425 12.24146812 60.62607555 8.92484856 60.63850021 C5.32408058 60.65119751 1.72379626 60.64535434 -1.87696838 60.63491821 C-3.43856848 60.64700282 -3.43856848 60.64700282 -5.03171605 60.65933156 C-15.59710411 60.58780369 -22.51387028 58.06454495 -30.20053101 50.74789429 C-35.63227843 44.5443698 -37.74486235 36.95095381 -37.57162476 28.82211304 C-36.77518957 18.60900298 -33.02216903 12.07851022 -25.37240601 5.26742554 C-18.02059818 -0.20128765 -8.78815856 -0.02646422 0 0 Z " fill="#E9FEFB" transform="translate(797.3724060058594,139.73257446289063)"/>
<path d="M0 0 C4.77625112 4.15171903 8.86950271 8.47781701 12.12890625 13.91015625 C12.12890625 14.90015625 12.12890625 15.89015625 12.12890625 16.91015625 C12.78890625 16.91015625 13.44890625 16.91015625 14.12890625 16.91015625 C14.47888672 16.03037109 14.47888672 16.03037109 14.8359375 15.1328125 C16.44130498 12.37313245 18.18843518 11.14658897 20.81640625 9.34765625 C21.64527344 8.76886719 22.47414063 8.19007813 23.328125 7.59375 C29.55691819 3.84952425 34.65820954 2.34886376 41.81640625 2.41015625 C42.60587646 2.41660156 43.39534668 2.42304688 44.20874023 2.4296875 C54.52785556 2.74923635 62.70624159 6.43939895 70.15625 13.60546875 C74.56796438 18.75974892 77.92192169 24.52246537 78.87890625 31.28515625 C79.72705173 34.96361002 79.72705173 34.96361002 82.25390625 36.265625 C84.01961903 37.07753757 85.79613239 37.86632122 87.58203125 38.6328125 C93.11591794 41.4082434 96.20306596 46.1499075 98.12890625 51.91015625 C99.29663526 59.91217295 97.74157018 66.29249016 93.12890625 72.91015625 C88.90058773 77.65963961 84.44740837 80.51949937 77.95009613 81.10725403 C75.31839346 81.19823178 72.69285237 81.22612663 70.05957031 81.23242188 C69.06038574 81.24235168 68.06120117 81.25228149 67.03173828 81.26251221 C63.73597426 81.29165029 60.44040276 81.30534163 57.14453125 81.31640625 C54.84535724 81.32791788 52.54618325 81.33943324 50.24700928 81.35095215 C45.42866119 81.37194224 40.61037954 81.38364707 35.79199219 81.390625 C29.6339722 81.40158811 23.47683805 81.44964047 17.31909561 81.50656891 C12.56969682 81.54391525 7.82050945 81.55423778 3.07097626 81.55729675 C0.80166532 81.56332991 -1.46764277 81.57931974 -3.73680878 81.60566711 C-6.91994108 81.63998847 -10.10093468 81.63598223 -13.28417969 81.62304688 C-14.21127747 81.64147644 -15.13837524 81.65990601 -16.09356689 81.67889404 C-23.20099822 81.58894921 -28.30955189 79.34009641 -33.87109375 74.91015625 C-36.7043627 71.4914065 -38.6054837 68.43741405 -39.37109375 64.03515625 C-39.61859375 62.98328125 -39.61859375 62.98328125 -39.87109375 61.91015625 C-41.53094173 61.22668943 -43.1994618 60.5642731 -44.87109375 59.91015625 C-51.79901471 54.74247628 -56.34435054 46.73201439 -58.51953125 38.4375 C-59.65025675 30.30884001 -59.78510965 22.26661986 -55.87109375 14.91015625 C-55.51917969 14.245 -55.16726563 13.57984375 -54.8046875 12.89453125 C-49.37047295 3.49674767 -41.50770028 -3.30690134 -30.99609375 -6.40234375 C-19.75284089 -8.66429995 -9.3874464 -6.83303921 0 0 Z " fill="#F4F9FB" transform="translate(940.87109375,243.08984375)"/>
<path d="M0 0 C0.78947021 0.00644531 1.57894043 0.01289063 2.39233398 0.01953125 C12.71144931 0.3390801 20.88983534 4.0292427 28.33984375 11.1953125 C32.75155813 16.34959267 36.10551544 22.11230912 37.0625 28.875 C37.91064548 32.55345377 37.91064548 32.55345377 40.4375 33.85546875 C42.20321278 34.66738132 43.97972614 35.45616497 45.765625 36.22265625 C51.29951169 38.99808715 54.38665971 43.73975125 56.3125 49.5 C57.48022901 57.5020167 55.92516393 63.88233391 51.3125 70.5 C47.08422729 75.24943191 42.61585763 78.14914792 36.10513687 78.67996597 C33.42953751 78.7457508 30.76081882 78.74728877 28.08447266 78.72705078 C27.06922516 78.72734283 26.05397766 78.72763489 25.00796509 78.72793579 C21.66407622 78.7265464 18.32041228 78.71100339 14.9765625 78.6953125 C12.65343345 78.69158099 10.33030282 78.68873467 8.00717163 78.68673706 C1.90142449 78.67911152 -4.20422707 78.6594722 -10.30993652 78.6373291 C-16.54385078 78.61684749 -22.77778052 78.60773038 -29.01171875 78.59765625 C-41.2370211 78.57622537 -53.46225259 78.54210236 -65.6875 78.5 C-65.6875 78.17 -65.6875 77.84 -65.6875 77.5 C-51.4975 77.5 -37.3075 77.5 -22.6875 77.5 C-23.0175 55.72 -23.3475 33.94 -23.6875 11.5 C-25.0075 12.49 -26.3275 13.48 -27.6875 14.5 C-26.21188774 10.79058795 -24.2643354 9.17204506 -21 6.9375 C-20.17113281 6.35871094 -19.34226562 5.77992188 -18.48828125 5.18359375 C-12.25948806 1.439368 -7.15819671 -0.06129249 0 0 Z " fill="#DBECFD" transform="translate(982.6875,245.5)"/>
<path d="M0 0 C6.65949441 4.54918024 11.26072064 11.1492119 13.80859375 18.78125 C14.9399435 27.96360027 13.35593398 36.26734715 8.3359375 44.0703125 C2.82452015 51.0279883 -5.01323591 55.0461966 -13.78515625 56.08984375 C-23.09187287 56.50264166 -30.15869492 53.94343829 -37.359375 47.98828125 C-43.54695885 41.58960712 -46.29899581 33.6397275 -46.81640625 24.84375 C-46.48022278 16.21504102 -42.64490999 8.67054008 -36.37890625 2.78125 C-25.31991013 -5.78528298 -12.38573754 -6.88832462 0 0 Z " fill="#E7FDFA" transform="translate(1146.19140625,144.21875)"/>
<path d="M0 0 C5.66737637 4.9263227 11.53183142 10.31993464 13.12890625 17.91015625 C11.64390625 18.40515625 11.64390625 18.40515625 10.12890625 18.91015625 C9.46890625 18.58015625 8.80890625 18.25015625 8.12890625 17.91015625 C-0.00618049 17.04635 -6.88277476 17.15746279 -13.7734375 21.86328125 C-16.89571614 24.909974 -18.44960056 28.45654555 -20.30859375 32.359375 C-22.49486348 35.92846033 -25.04953828 37.13616217 -28.7578125 38.875 C-33.91542105 41.40137018 -36.92142644 45.6460545 -38.87109375 50.91015625 C-39.39178088 54.57013182 -39.68064048 58.21930327 -39.87109375 61.91015625 C-48.85341975 58.68573153 -52.66707861 52.09489331 -56.70703125 43.77734375 C-59.7796347 36.20925338 -60.41164984 26.36568036 -57.68359375 18.59765625 C-57.11980472 17.34945355 -56.51441517 16.11929049 -55.87109375 14.91015625 C-55.51917969 14.245 -55.16726563 13.57984375 -54.8046875 12.89453125 C-49.37047295 3.49674767 -41.50770028 -3.30690134 -30.99609375 -6.40234375 C-19.75284089 -8.66429995 -9.3874464 -6.83303921 0 0 Z " fill="#F7E476" transform="translate(940.87109375,243.08984375)"/>
<path d="M0 0 C3.712237 2.19532701 5.78077029 4.36610816 7.5625 8.375 C8.32797339 13.34260334 8.38788686 17.05438102 5.6875 21.375 C4.635625 22.365 4.635625 22.365 3.5625 23.375 C2.9025 24.035 2.2425 24.695 1.5625 25.375 C2.05621094 25.78492188 2.54992187 26.19484375 3.05859375 26.6171875 C3.69925781 27.15601563 4.33992187 27.69484375 5 28.25 C5.63808594 28.78367187 6.27617188 29.31734375 6.93359375 29.8671875 C9.09724601 31.86999271 9.519375 32.97455354 9.8359375 35.9140625 C10.03948537 42.09878629 9.88858653 46.69904007 6.08984375 51.75 C2.41792935 55.65669154 -0.32864813 57.14594867 -5.56640625 57.71484375 C-16.60505677 58.02879854 -16.60505677 58.02879854 -21.4375 54.375 C-27.2137345 48.46188791 -28.89336829 44.78776133 -28.86328125 36.43359375 C-28.21048669 31.74425303 -25.91676079 29.38555208 -22.4375 26.375 C-21.7775 25.715 -21.1175 25.055 -20.4375 24.375 C-21.241875 23.59125 -22.04625 22.8075 -22.875 22 C-25.96291535 18.83676964 -26.61162366 17.40738363 -26.75 13.125 C-26.67491009 8.44689875 -25.64625482 5.91285788 -22.4375 2.375 C-15.75074286 -2.81064839 -7.7919963 -3.45987895 0 0 Z " fill="#F3FAFA" transform="translate(944.4375,444.625)"/>
<path d="M0 0 C4.14318847 2.536646 6.86184105 5.47368211 9.0625 9.875 C10.09458603 16.66847765 8.94479979 21.59889178 5.1640625 27.296875 C1.0032497 32.40121784 -3.94872119 36.61008322 -8.9375 40.875 C-10.50119925 42.22778168 -12.06389295 43.58172775 -13.625 44.9375 C-14.24761719 45.46472656 -14.87023437 45.99195313 -15.51171875 46.53515625 C-17.06324904 47.83854821 -17.06324904 47.83854821 -17.9375 49.875 C-9.0275 49.875 -0.1175 49.875 9.0625 49.875 C9.0625 52.185 9.0625 54.495 9.0625 56.875 C-3.4775 56.875 -16.0175 56.875 -28.9375 56.875 C-28.9375 48.28148795 -24.86959339 44.74583455 -19.0625 38.8125 C-16.37420681 36.18588849 -13.60356588 33.6951459 -10.75 31.25 C-5.60701531 26.8244061 -0.22801133 21.92536897 0.4375 14.9375 C0.36775432 11.77569568 0.19960794 11.05324033 -1.8125 8.4375 C-5.18827811 5.95531022 -7.65908472 5.47338835 -11.8984375 5.52734375 C-15.42432808 6.12850134 -16.89364322 8.08792257 -18.9375 10.875 C-19.80988858 13.55290896 -19.80988858 13.55290896 -19.9375 15.875 C-22.5775 15.875 -25.2175 15.875 -27.9375 15.875 C-27.61027993 9.54874535 -26.6975501 6.42349232 -21.9375 1.875 C-15.91829352 -2.52929743 -6.90805919 -2.54507444 0 0 Z " fill="#F4FBFA" transform="translate(899.9375,444.125)"/>
<path d="M0 0 C2.51236458 2.32393723 4.63246003 4.43936159 6.5 7.3125 C6.5 8.6325 6.5 9.9525 6.5 11.3125 C4.19 11.6425 1.88 11.9725 -0.5 12.3125 C-1.11875 11.343125 -1.7375 10.37375 -2.375 9.375 C-4.15678846 6.28414638 -4.15678846 6.28414638 -6.5 5.3125 C-10.57909806 4.92767943 -12.79089873 4.87128143 -16.3125 7.0625 C-20.21837568 11.07997213 -20.79301021 14.11342093 -20.8125 19.6875 C-20.70968407 25.80162071 -19.83974535 29.52280362 -15.875 34.25 C-12.0609471 35.95628682 -8.4448845 35.55510119 -4.5 34.3125 C-2.27701756 31.67270835 -1.58574545 29.56973634 -0.5 26.3125 C5.25 26.1875 5.25 26.1875 7.5 27.3125 C6.87058345 32.66254071 4.47428733 36.52330211 0.5 40.125 C-4.5855392 43.1445389 -10.77183569 42.91940275 -16.5 42.3125 C-19.9375 40.5625 -19.9375 40.5625 -22.5 38.3125 C-23.221875 37.755625 -23.94375 37.19875 -24.6875 36.625 C-29.30528023 30.73334936 -30.119548 23.62982187 -29.9140625 16.31640625 C-29.15223127 10.78953632 -27.04747654 5.71349664 -22.9375 1.83984375 C-16.31237689 -2.78117962 -7.22334557 -3.48268447 0 0 Z " fill="#F3F9F9" transform="translate(1043.5,459.6875)"/>
<path d="M0 0 C2.475 0.495 2.475 0.495 5 1 C5.66 0.67 6.32 0.34 7 0 C11.28359106 -0.49426051 13.56736716 -0.22024945 17.4375 1.75 C20.37120006 4.48707137 20.48533165 7.08928607 20.625 11 C20.43146234 14.93365294 20.15037962 16.74435465 18.125 20.1875 C14.40047003 23.36430498 11.84112865 23.17289745 7 23 C6.34 22.67 5.68 22.34 5 22 C4.67 25.3 4.34 28.6 4 32 C2.68 32 1.36 32 0 32 C0 21.44 0 10.88 0 0 Z " fill="#F1F8F6" transform="translate(988,528)"/>
<path d="M0 0 C3.06881816 1.71904752 5.40357084 3.80714167 7 7 C7.53118173 10.79415519 7.85089348 14.46331178 5.953125 17.890625 C3.62271153 20.71453779 1.71892696 22.79399893 -1.98828125 23.23828125 C-5.85222 23.36166753 -8.41796982 23.28482328 -11.9375 21.5625 C-14.83827742 17.95850381 -15.82890596 14.61176196 -16 10 C-15.27936847 6.45802805 -13.70377558 3.83911704 -11.375 1.0625 C-7.59454089 -0.62875802 -4.05704213 -0.77210144 0 0 Z " fill="#F0F7F5" transform="translate(917,528)"/>
<path d="M0 0 C3.19401851 1.52441793 5.75418735 3.26212727 8 6 C8.83122034 10.02449183 8.77495805 14.12812065 7.19140625 17.953125 C5.49365696 20.37344579 3.6491644 21.79339433 0.83984375 22.6875 C-2.90586576 23.28781404 -5.34022354 23.27251637 -8.875 21.8125 C-13.70620017 17.69177044 -13.70620017 17.69177044 -14.35546875 13.953125 C-14.62007752 9.69077828 -14.37582441 6.86935297 -11.625 3.5 C-7.65672528 -0.27930926 -5.45229949 -0.36964742 0 0 Z " fill="#1CA0A0" transform="translate(938,473)"/>
<path d="M0 0 C5.5 3 5.5 3 7 6 C7.43808718 10.28819956 7.44926618 13.94422448 5.75 17.9375 C2.68581986 21.54885517 0.81731509 21.92216047 -3.9375 22.375 C-7.09516598 22.29267724 -8.04689792 21.97145344 -10.875 20.25 C-13.99497149 16.94650078 -14.84963004 15.1599968 -15.4375 10.625 C-14.85694294 5.8146701 -13.38607407 4.38607407 -10 1 C-6.78918322 -0.60540839 -3.48289645 -0.48463309 0 0 Z " fill="#EDF7F7" transform="translate(999,442)"/>
<path d="M0 0 C1.65 0 3.3 0 5 0 C5.33 4.62 5.66 9.24 6 14 C6.94101562 12.989375 7.88203125 11.97875 8.8515625 10.9375 C10.10855979 9.62421925 11.3664177 8.31176184 12.625 7 C13.55119141 5.99839844 13.55119141 5.99839844 14.49609375 4.9765625 C19.22539106 0.09791896 19.22539106 0.09791896 23.4609375 -0.4375 C24.29882812 -0.293125 25.13671875 -0.14875 26 0 C23.14159258 3.40847895 20.35100521 6.67886757 17.0625 9.6875 C16.381875 10.450625 15.70125 11.21375 15 12 C15.35168628 15.14197086 16.62105679 17.15255609 18.50390625 19.63671875 C18.99697266 20.29607422 19.49003906 20.95542969 19.99804688 21.63476562 C20.51431641 22.31216797 21.03058594 22.98957031 21.5625 23.6875 C22.58660411 25.04408897 23.60884716 26.4020856 24.62890625 27.76171875 C25.08338135 28.35944092 25.53785645 28.95716309 26.00610352 29.57299805 C27 31 27 31 27 32 C24.3359375 32.4375 24.3359375 32.4375 21 32 C18.77379203 29.9604475 17.24393473 27.53355949 15.625 25 C15.17511719 24.33226562 14.72523438 23.66453125 14.26171875 22.9765625 C13.15610217 21.3298995 12.07554648 19.66645937 11 18 C8.3094472 19.22007944 8.3094472 19.22007944 6 21 C5.76636119 22.84891946 5.58696365 24.70488031 5.4375 26.5625 C5.35371094 27.57441406 5.26992188 28.58632813 5.18359375 29.62890625 C5.12300781 30.41136719 5.06242188 31.19382812 5 32 C3.35 32 1.7 32 0 32 C0 21.44 0 10.88 0 0 Z " fill="#EFF8F5" transform="translate(873,519)"/>
<path d="M0 0 C3.35711455 0.55951909 5.28615908 1.46461931 8 3.5 C10.35620437 7.03430656 10.48991613 8.33571287 10 12.5 C6.84210526 18.07894737 6.84210526 18.07894737 4 19.5 C1.51900266 19.58649451 -0.93344928 19.61565054 -3.4140625 19.59765625 C-4.14370209 19.5962413 -4.87334167 19.59482635 -5.62509155 19.59336853 C-7.95843585 19.58776531 -10.29168464 19.57521235 -12.625 19.5625 C-14.20572778 19.55748541 -15.78645707 19.55292243 -17.3671875 19.54882812 C-21.24482854 19.53779484 -25.12239807 19.52052811 -29 19.5 C-29.625 17.625 -29.625 17.625 -30 15.5 C-27.13454405 12.63454405 -25.03185244 13.18370372 -21.0234375 13.0859375 C-19.99556625 13.05688828 -19.99556625 13.05688828 -18.94692993 13.0272522 C-16.75641356 12.96743169 -14.5658447 12.92106244 -12.375 12.875 C-10.89060198 12.83682237 -9.40622616 12.79777076 -7.921875 12.7578125 C-4.28145315 12.66172916 -0.64086564 12.57770718 3 12.5 C3 10.85 3 9.2 3 7.5 C1.35 7.5 -0.3 7.5 -2 7.5 C-2.66 9.15 -3.32 10.8 -4 12.5 C-6.475 12.005 -6.475 12.005 -9 11.5 C-8.73114094 7.64635352 -8.17995652 5.73651429 -5.8125 2.625 C-3 0.5 -3 0.5 0 0 Z " fill="#F0F5F7" transform="translate(997,613.5)"/>
<path d="M0 0 C0.845625 -0.00773438 1.69125 -0.01546875 2.5625 -0.0234375 C5.54649864 0.46433151 6.80162111 1.31522941 9 3.375 C9.54589844 5.55151367 9.54589844 5.55151367 9.609375 8.04296875 C9.64160156 8.93564453 9.67382812 9.82832031 9.70703125 10.74804688 C9.72121094 11.67681641 9.73539063 12.60558594 9.75 13.5625 C9.77964844 14.50287109 9.80929687 15.44324219 9.83984375 16.41210938 C9.91053562 18.73315916 9.96323165 21.05320535 10 23.375 C8.88625 23.189375 7.7725 23.00375 6.625 22.8125 C3.17431139 22.05819343 3.17431139 22.05819343 1 23.375 C-1.05859375 23.578125 -1.05859375 23.578125 -3.4375 23.625 C-4.21996094 23.65078125 -5.00242187 23.6765625 -5.80859375 23.703125 C-8 23.375 -8 23.375 -9.76171875 22.078125 C-11.81897237 19.24859005 -11.36068593 16.74140205 -11 13.375 C-9.21814467 10.72425408 -8.01572059 10.37866096 -4.86328125 9.64453125 C-3.10564453 9.41830078 -3.10564453 9.41830078 -1.3125 9.1875 C-0.13300781 9.02894531 1.04648437 8.87039063 2.26171875 8.70703125 C3.16535156 8.59746094 4.06898438 8.48789062 5 8.375 C4.67 7.385 4.34 6.395 4 5.375 C-0.61507774 4.33285309 -0.61507774 4.33285309 -5 5.375 C-5.33 6.365 -5.66 7.355 -6 8.375 C-7.65 8.375 -9.3 8.375 -11 8.375 C-9.07462578 2.43842948 -6.34065847 -0.05799383 0 0 Z " fill="#F3F9F8" transform="translate(973,527.625)"/>
<path d="M0 0 C0.71919617 -0.00807175 1.43839233 -0.01614349 2.17938232 -0.02445984 C3.70598937 -0.03831723 5.23262761 -0.04903196 6.75927734 -0.05688477 C9.08621812 -0.07404795 11.41171955 -0.11790915 13.73828125 -0.16210938 C15.22134371 -0.17224057 16.70441827 -0.18075534 18.1875 -0.1875 C18.88039124 -0.20500809 19.57328247 -0.22251617 20.28717041 -0.24055481 C25.08926281 -0.21917407 27.48937551 0.8433978 30.859375 4.23828125 C32.26938164 7.05829452 32.10485951 9.1083538 31.859375 12.23828125 C30.59648841 15.01663174 29.5071579 16.72930897 27.109375 18.61328125 C23.71825413 19.55525927 21.24946297 19.08580324 17.859375 18.23828125 C14.70885186 15.99975165 13.98327094 14.77516367 13.109375 10.98828125 C13.026875 10.08078125 12.944375 9.17328125 12.859375 8.23828125 C14.509375 7.90828125 16.159375 7.57828125 17.859375 7.23828125 C18.189375 8.88828125 18.519375 10.53828125 18.859375 12.23828125 C20.509375 12.23828125 22.159375 12.23828125 23.859375 12.23828125 C24.189375 10.58828125 24.519375 8.93828125 24.859375 7.23828125 C21.96013134 5.78865942 19.33637145 6.01701644 16.1015625 5.921875 C15.43851105 5.9010939 14.77545959 5.88031281 14.09231567 5.85890198 C11.97310806 5.79348894 9.853776 5.7345602 7.734375 5.67578125 C6.29816419 5.63258816 4.86196598 5.58897361 3.42578125 5.54492188 C-0.09622094 5.43781626 -3.61836325 5.3365255 -7.140625 5.23828125 C-7.703125 3.30078125 -7.703125 3.30078125 -8.140625 1.23828125 C-6.21141782 -0.69092593 -2.631524 0.0277307 0 0 Z " fill="#EBF1F4" transform="translate(975.140625,634.76171875)"/>
<path d="M0 0 C1.32 0 2.64 0 4 0 C4 3.63 4 7.26 4 11 C4.99 10.34 5.98 9.68 7 9 C14.04488635 8.44088204 14.04488635 8.44088204 17.1027832 10.23095703 C19 12 19 12 19.45410156 14.17651367 C19.42268066 15.40978394 19.42268066 15.40978394 19.390625 16.66796875 C19.37128906 18.00698242 19.37128906 18.00698242 19.3515625 19.37304688 C19.31804688 20.30181641 19.28453125 21.23058594 19.25 22.1875 C19.23195313 23.12787109 19.21390625 24.06824219 19.1953125 25.03710938 C19.1481655 27.35909889 19.08238231 29.6790369 19 32 C17.68 32 16.36 32 15 32 C14.93941406 30.78441406 14.87882813 29.56882812 14.81640625 28.31640625 C14.73201668 26.73175772 14.6473679 25.14712298 14.5625 23.5625 C14.52318359 22.76005859 14.48386719 21.95761719 14.44335938 21.13085938 C14.5945704 17.24760439 14.5945704 17.24760439 13 14 C10.04182893 13.74994614 10.04182893 13.74994614 7 14 C4.06552643 16.93447357 4.53841577 20.18259456 4.375 24.125 C4.33632813 24.87910156 4.29765625 25.63320313 4.2578125 26.41015625 C4.16348969 28.27303184 4.08065338 30.13648255 4 32 C2.68 32 1.36 32 0 32 C0 21.44 0 10.88 0 0 Z " fill="#F4FCF9" transform="translate(938,519)"/>
<path d="M0 0 C5.55324134 3.29080968 5.55324134 3.29080968 6.515625 6.97265625 C6.68951024 10.29510637 6.24017245 12.60971977 4.5 15.4375 C1.04148482 17.59907199 -1.9166478 18.43806077 -6 18 C-8.99692469 16.73547481 -9.82575919 15.663445 -12 13 C-12.85763993 10.11995239 -12.87039227 7.87809709 -12 5 C-8.37923712 0.86198528 -5.52333149 -1.15069406 0 0 Z " fill="#1BA5A3" transform="translate(938,449)"/>
<path d="M0 0 C1.32 0 2.64 0 4 0 C4.06058594 1.21558594 4.12117187 2.43117188 4.18359375 3.68359375 C4.26798332 5.26824228 4.3526321 6.85287702 4.4375 8.4375 C4.47681641 9.23994141 4.51613281 10.04238281 4.55664062 10.86914062 C4.4054296 14.75239561 4.4054296 14.75239561 6 18 C8.95804573 18.33340471 8.95804573 18.33340471 12 18 C14.40119059 14.39821412 14.43771322 11.49133631 14.625 7.3125 C14.68300781 6.2596582 14.68300781 6.2596582 14.7421875 5.18554688 C14.8362334 3.45745345 14.9191968 1.72876325 15 0 C16.32 0 17.64 0 19 0 C19 7.59 19 15.18 19 23 C17.68 23 16.36 23 15 23 C15 22.34 15 21.68 15 21 C14.01 21.66 13.02 22.32 12 23 C5.04801097 23.66209419 5.04801097 23.66209419 1.76171875 21.5859375 C-0.93290259 17.63063966 -0.42912322 13.91409305 -0.25 9.25 C-0.23195313 8.36183594 -0.21390625 7.47367188 -0.1953125 6.55859375 C-0.14827374 4.37129152 -0.08257009 2.18620184 0 0 Z " fill="#F6FAF7" transform="translate(1013,528)"/>
<path d="M0 0 C1.9375 1.0625 1.9375 1.0625 3 3 C3.13094599 5.74986589 3.14128616 8.27370031 3 11 C3 12.32 3 13.64 3 15 C3 15.66 3 16.32 3 17 C2.34 17 1.68 17 1 17 C0.67 16.34 0.34 15.68 0 15 C-0.9075 15.04125 -1.815 15.0825 -2.75 15.125 C-5.93722611 15.00241438 -7.44006767 14.8285231 -10 13 C-12.0815902 10.32366974 -11.99587591 8.88246332 -11.875 5.4375 C-11 2 -11 2 -9.375 0 C-5.91616747 -1.45635054 -3.58701629 -0.91305869 0 0 Z " fill="#E5F9F6" transform="translate(1134,160)"/>
<path d="M0 0 C2.57254457 1.01547812 3.65479851 1.79939646 5.375 3.9375 C6.05284775 7.00476105 5.96876576 9.85768697 5.375 12.9375 C3.1875 15.5625 3.1875 15.5625 0.375 16.9375 C-2.51840954 16.8686093 -3.97759354 16.45042106 -6.2421875 14.65625 C-8.4390363 11.92570347 -8.15912467 9.49611548 -8.04296875 6.10546875 C-7.625 3.9375 -7.625 3.9375 -5.4375 1.3125 C-2.625 -0.0625 -2.625 -0.0625 0 0 Z " fill="#259CA2" transform="translate(913.625,531.0625)"/>
<path d="M0 0 C4.18087152 -0.07441989 8.3613873 -0.12872818 12.54272461 -0.16479492 C13.96369141 -0.1798376 15.38461213 -0.20027704 16.80541992 -0.22631836 C18.85346886 -0.26290347 20.9009015 -0.27977097 22.94921875 -0.29296875 C24.79519653 -0.31653442 24.79519653 -0.31653442 26.6784668 -0.34057617 C30.27920391 0.02862841 32.13533543 0.83081837 35 3 C36.56430248 6.12860495 36.35627284 8.55602925 36 12 C33.9375 14.5 33.9375 14.5 31 16 C27.45237749 15.93883409 25.0644253 15.686726 22.0625 13.75 C20.64559947 11.41628148 20.78281304 9.67863922 21 7 C21.66 7 22.32 7 23 7 C23.66 8.65 24.32 10.3 25 12 C27.31 12 29.62 12 32 12 C32.67801034 9.09926819 32.67801034 9.09926819 33 6 C30.13454405 3.13454405 28.03185244 3.68370372 24.0234375 3.5859375 C23.33819 3.56657135 22.6529425 3.5472052 21.94692993 3.5272522 C19.75641356 3.46743169 17.5658447 3.42106244 15.375 3.375 C13.89060198 3.33682237 12.40622616 3.29777076 10.921875 3.2578125 C7.28145315 3.16172916 3.64086564 3.07770718 0 3 C0 2.01 0 1.02 0 0 Z " fill="#5591A5" transform="translate(969,636)"/>
<path d="M0 0 C2.95839355 -0.02689449 5.91654427 -0.04678741 8.875 -0.0625 C9.71675781 -0.07087891 10.55851562 -0.07925781 11.42578125 -0.08789062 C12.23144531 -0.09111328 13.03710938 -0.09433594 13.8671875 -0.09765625 C14.98262939 -0.10551147 14.98262939 -0.10551147 16.12060547 -0.11352539 C18 0 18 0 20 1 C20 5.62 20 10.24 20 15 C19.01 15 18.02 15 17 15 C16.67 11.04 16.34 7.08 16 3 C15.01 3 14.02 3 13 3 C12.67 6.96 12.34 10.92 12 15 C11.01 15 10.02 15 9 15 C8.67 11.04 8.34 7.08 8 3 C6.68 3.33 5.36 3.66 4 4 C3.67 7.63 3.34 11.26 3 15 C2.01 15 1.02 15 0 15 C0 10.05 0 5.1 0 0 Z " fill="#ECF3F2" transform="translate(1095,616)"/>
<path d="M0 0 C1.875 1 1.875 1 3 3 C3.39174433 7.11331542 3.56377991 9.74715576 1.875 13.5 C0 15 0 15 -3 15.5 C-6 15 -6 15 -7.875 13.5 C-9.56377991 9.74715576 -9.39174433 7.11331542 -9 3 C-6.89283346 -0.74607384 -4.00604938 -0.50075617 0 0 Z " fill="#2E8C9D" transform="translate(1001,532)"/>
<path d="M0 0 C0.99 0 1.98 0 3 0 C3 4.29 3 8.58 3 13 C3.66 13 4.32 13 5 13 C5 13.66 5 14.32 5 15 C4.34 15 3.68 15 3 15 C3 16.65 3 18.3 3 20 C2.01 20 1.02 20 0 20 C0 18.35 0 16.7 0 15 C-2.97 15 -5.94 15 -9 15 C-7.95794958 10.8317983 -6.6152338 8.69801603 -4.125 5.25 C-3.42632813 4.26515625 -2.72765625 3.2803125 -2.0078125 2.265625 C-1.34523438 1.51796875 -0.68265625 0.7703125 0 0 Z " fill="#F9F5ED" transform="translate(1026,611)"/>
<path d="M0 0 C0.99 0 1.98 0 3 0 C3 4.29 3 8.58 3 13 C3.66 13 4.32 13 5 13 C5 13.66 5 14.32 5 15 C4.34 15 3.68 15 3 15 C3 16.65 3 18.3 3 20 C2.01 20 1.02 20 0 20 C0 18.35 0 16.7 0 15 C-2.97 15 -5.94 15 -9 15 C-7.95794958 10.8317983 -6.6152338 8.69801603 -4.125 5.25 C-3.42632813 4.26515625 -2.72765625 3.2803125 -2.0078125 2.265625 C-1.34523438 1.51796875 -0.68265625 0.7703125 0 0 Z " fill="#E9FBFD" transform="translate(1065,611)"/>
<path d="M0 0 C2.4375 1.5625 2.4375 1.5625 4 4 C4.54863633 7.84045433 4.72240491 9.98989182 2.43066406 13.19433594 C-0.93743215 15.69638893 -3.22573658 15.45673434 -7.390625 15.390625 C-8.44754547 15.38213531 -8.44754547 15.38213531 -9.52581787 15.37347412 C-11.76791428 15.35115078 -14.00838988 15.30096754 -16.25 15.25 C-17.77341435 15.22992952 -19.29685386 15.2116797 -20.8203125 15.1953125 C-24.5473983 15.15130118 -28.27354087 15.08230372 -32 15 C-32 14.34 -32 13.68 -32 13 C-31.10692139 12.98541748 -30.21384277 12.97083496 -29.29370117 12.95581055 C-25.97782722 12.89472923 -22.66278101 12.82057522 -19.34741211 12.73754883 C-17.91295372 12.70430999 -16.47836487 12.67627465 -15.04370117 12.65356445 C-12.98039193 12.61999729 -10.91827697 12.56768587 -8.85546875 12.51171875 C-6.99378052 12.47244263 -6.99378052 12.47244263 -5.09448242 12.43237305 C-2.03404586 12.24384947 -2.03404586 12.24384947 -0.05200195 10.63598633 C1.28133713 8.94271765 1.28133713 8.94271765 0.6875 6.3125 C0.460625 5.549375 0.23375 4.78625 0 4 C-2.34533951 3.23043864 -2.34533951 3.23043864 -5 3 C-7.53844009 4.81317149 -7.99489025 5.98467075 -9 9 C-9.66 9 -10.32 9 -11 9 C-11.35430394 5.81126451 -11.25953249 4.38410809 -9.4375 1.6875 C-6.07228821 -0.64226201 -4.01027077 -0.57289582 0 0 Z " fill="#3F8399" transform="translate(1001,616)"/>
<path d="M0 0 C3.63 0 7.26 0 11 0 C11 0.99 11 1.98 11 3 C8.03 3 5.06 3 2 3 C2 3.99 2 4.98 2 6 C2.928125 5.938125 3.85625 5.87625 4.8125 5.8125 C8 6 8 6 9.875 7.0625 C11.66830867 10.15097604 11.42841969 12.51143969 11 16 C9.375 18.4375 9.375 18.4375 7 20 C3.70244101 20.47107986 1.89001758 20.62301231 -0.875 18.6875 C-2 17 -2 17 -2 14 C-1.01 14 -0.02 14 1 14 C1 14.99 1 15.98 1 17 C2.66611905 17.042721 4.33382885 17.04063832 6 17 C7.35618499 15.87465895 7.35618499 15.87465895 7.0625 12.9375 C7.041875 11.968125 7.02125 10.99875 7 10 C3.32211882 8.77403961 2.21550387 9.15689923 -2 10 C-1.34 6.7 -0.68 3.4 0 0 Z " fill="#EBEDEC" transform="translate(1044,611)"/>
<path d="M0 0 C3.3 0 6.6 0 10 0 C10 0.99 10 1.98 10 3 C7.36 3 4.72 3 2 3 C2 3.99 2 4.98 2 6 C2.928125 5.938125 3.85625 5.87625 4.8125 5.8125 C8 6 8 6 9.875 7.0625 C11.66830867 10.15097604 11.42841969 12.51143969 11 16 C9.375 18.4375 9.375 18.4375 7 20 C3.70244101 20.47107986 1.89001758 20.62301231 -0.875 18.6875 C-2 17 -2 17 -2 14 C-1.01 14 -0.02 14 1 14 C1.99 15.485 1.99 15.485 3 17 C4.32 16.67 5.64 16.34 7 16 C7 14.02 7 12.04 7 10 C3.32211882 8.77403961 2.21550387 9.15689923 -2 10 C-1.34 6.7 -0.68 3.4 0 0 Z " fill="#EBF6F5" transform="translate(849,611)"/>
<path d="M0 0 C1.32 0 2.64 0 4 0 C4 10.56 4 21.12 4 32 C2.68 32 1.36 32 0 32 C0 21.44 0 10.88 0 0 Z " fill="#FBFDF8" transform="translate(928,519)"/>
<path d="M0 0 C2 2 2 2 2.265625 3.875 C2.26046875 4.57625 2.2553125 5.2775 2.25 6 C2.25515625 6.70125 2.2603125 7.4025 2.265625 8.125 C2 10 2 10 0 12 C-6.05240175 12.55021834 -6.05240175 12.55021834 -8.9375 10.875 C-10.50422245 8.11019567 -10.38976435 6.11811483 -10 3 C-7.71933282 -1.02470679 -4.21240995 -0.38294636 0 0 Z " fill="#269DA1" transform="translate(999,447)"/>
<path d="M0 0 C2.475 0.495 2.475 0.495 5 1 C5.33 0.67 5.66 0.34 6 0 C7.99958364 -0.04080783 10.00045254 -0.04254356 12 0 C12.33 0.66 12.66 1.32 13 2 C12.67 2.66 12.34 3.32 12 4 C9.69 4.66 7.38 5.32 5 6 C4.67 11.61 4.34 17.22 4 23 C2.68 23 1.36 23 0 23 C0 15.41 0 7.82 0 0 Z " fill="#F5FCF8" transform="translate(1038,528)"/>
<path d="M0 0 C0.99 0 1.98 0 3 0 C3.33 2.97 3.66 5.94 4 9 C5.32 7.68 6.64 6.36 8 5 C8.99 5.33 9.98 5.66 11 6 C10.484375 6.391875 9.96875 6.78375 9.4375 7.1875 C7.72748045 8.93366277 7.72748045 8.93366277 8.125 11.4375 C9.04041074 14.11834574 10.25336509 15.79772119 12 18 C12 18.66 12 19.32 12 20 C8.74456771 19.65120368 7.98126893 18.97866739 5.75 16.4375 C4.88375 15.2309375 4.88375 15.2309375 4 14 C3.67 15.98 3.34 17.96 3 20 C2.01 20 1.02 20 0 20 C0 13.4 0 6.8 0 0 Z " fill="#EEF4F2" transform="translate(1081,611)"/>
<path d="M0 0 C0.99 0 1.98 0 3 0 C3.33 1.65 3.66 3.3 4 5 C4.94875 4.95875 5.8975 4.9175 6.875 4.875 C10 5 10 5 12 7 C12.1953125 10.0390625 12.1953125 10.0390625 12.125 13.625 C12.10695313 14.81351563 12.08890625 16.00203125 12.0703125 17.2265625 C12.04710937 18.14179687 12.02390625 19.05703125 12 20 C11.34 20 10.68 20 10 20 C9.67 16.37 9.34 12.74 9 9 C7.68 8.67 6.36 8.34 5 8 C3.26043342 9.73956658 3.62809614 12.1936622 3.4375 14.5625 C3.35371094 15.57441406 3.26992187 16.58632813 3.18359375 17.62890625 C3.12300781 18.41136719 3.06242187 19.19382812 3 20 C2.01 20 1.02 20 0 20 C0 13.4 0 6.8 0 0 Z " fill="#EEF6F7" transform="translate(1126,611)"/>
<path d="M0 0 C3.3 0 6.6 0 10 0 C10 3.3 10 6.6 10 10 C6.7 10 3.4 10 0 10 C0 6.7 0 3.4 0 0 Z " fill="#C1E2F1" transform="translate(1020,379)"/>
<path d="M0 0 C3.3 0 6.6 0 10 0 C10 3.3 10 6.6 10 10 C6.7 10 3.4 10 0 10 C0 6.7 0 3.4 0 0 Z " fill="#D3EFEF" transform="translate(937,379)"/>
<path d="M0 0 C3.3 0 6.6 0 10 0 C10 3.3 10 6.6 10 10 C6.7 10 3.4 10 0 10 C0 6.7 0 3.4 0 0 Z " fill="#BDE3F0" transform="translate(974,356)"/>
<path d="M0 0 C3.3 0 6.6 0 10 0 C10 3.3 10 6.6 10 10 C6.7 10 3.4 10 0 10 C0 6.7 0 3.4 0 0 Z " fill="#D0EEEE" transform="translate(946,356)"/>
<path d="M0 0 C3.3 0 6.6 0 10 0 C10 3.3 10 6.6 10 10 C6.7 10 3.4 10 0 10 C0 6.7 0 3.4 0 0 Z " fill="#D2F0F0" transform="translate(891,356)"/>
<path d="M0 0 C3.3 0 6.6 0 10 0 C10 3.3 10 6.6 10 10 C6.7 10 3.4 10 0 10 C0 6.7 0 3.4 0 0 Z " fill="#BDE4F1" transform="translate(965,333)"/>
<path d="M0 0 C3.3 0 6.6 0 10 0 C10 3.3 10 6.6 10 10 C6.7 10 3.4 10 0 10 C0 6.7 0 3.4 0 0 Z " fill="#D3F0EF" transform="translate(937,333)"/>
<path d="M0 0 C4.62 0 9.24 0 14 0 C12.2584718 4.35382049 10.29907411 8.36377618 8.12109375 12.5 C6.99428239 15.01275006 6.43090651 17.28867817 6 20 C5.01 20 4.02 20 3 20 C3.45089495 13.68747074 4.9335853 9.53932978 8 4 C5.36 3.67 2.72 3.34 0 3 C0 2.01 0 1.02 0 0 Z " fill="#DCF2F2" transform="translate(831,611)"/>
<path d="M0 0 C2.97 0 5.94 0 9 0 C9 3.3 9 6.6 9 10 C6.03 10 3.06 10 0 10 C0 6.7 0 3.4 0 0 Z " fill="#E3F5F5" transform="translate(882,379)"/>
<path d="M0 0 C2.97 0 5.94 0 9 0 C9 3.3 9 6.6 9 10 C6.03 10 3.06 10 0 10 C0 6.7 0 3.4 0 0 Z " fill="#CCE7F6" transform="translate(1030,356)"/>
<path d="M0 0 C2.97 0 5.94 0 9 0 C9 3.3 9 6.6 9 10 C6.03 10 3.06 10 0 10 C0 6.7 0 3.4 0 0 Z " fill="#CCE8F6" transform="translate(993,333)"/>
<path d="M0 0 C2.97 0 5.94 0 9 0 C9 3.3 9 6.6 9 10 C6.03 10 3.06 10 0 10 C0 6.7 0 3.4 0 0 Z " fill="#E4F5F6" transform="translate(882,333)"/>
<path d="M0 0 C3.49406769 1.66762322 4.82670681 2.74006022 7 6 C7.52647098 9.94853235 7.12917447 11.75549118 5.25 15.3125 C2.82495879 18.209077 2.52650085 18.50120055 -1 19 C-3.31800663 19.01570035 -5.63674897 18.96724262 -7.953125 18.87890625 C-8.94345734 18.84348976 -8.94345734 18.84348976 -9.95379639 18.80735779 C-12.052769 18.7310719 -14.15133949 18.64689847 -16.25 18.5625 C-17.67706397 18.5092441 -19.10414728 18.45650396 -20.53125 18.40429688 C-24.02107733 18.27550501 -27.51058798 18.13963981 -31 18 C-31 17.67 -31 17.34 -31 17 C-30.04633545 16.98541748 -29.0926709 16.97083496 -28.11010742 16.95581055 C-24.57066415 16.89782208 -21.03185676 16.82059042 -17.49291992 16.73754883 C-15.96144941 16.70430182 -14.42985644 16.67626907 -12.89819336 16.65356445 C-10.69592113 16.62001282 -8.49477088 16.5677009 -6.29296875 16.51171875 C-5.60849167 16.50532883 -4.92401459 16.4989389 -4.21879578 16.49235535 C-1.39928745 16.40521211 0.56624783 16.29477611 2.93237305 14.68676758 C4.74921544 11.81629786 4.35171594 9.28268211 4 6 C3.08333333 3.91666667 3.08333333 3.91666667 1 3 C-3.36706908 2.61008312 -5.30513897 2.53675931 -9 5 C-9 4.01 -9 3.02 -9 2 C-5.4913604 -0.33909307 -4.12910567 -0.41291057 0 0 Z " fill="#CCDEE4" transform="translate(1000,614)"/>
<path d="M0 0 C1.9375 1.0625 1.9375 1.0625 3 3 C3.13094599 5.74986589 3.14128616 8.27370031 3 11 C3 12.32 3 13.64 3 15 C3 15.66 3 16.32 3 17 C2.34 17 1.68 17 1 17 C0.67 16.34 0.34 15.68 0 15 C-0.9075 15.04125 -1.815 15.0825 -2.75 15.125 C-5.93722611 15.00241438 -7.44006767 14.8285231 -10 13 C-12.0815902 10.32366974 -11.99587591 8.88246332 -11.875 5.4375 C-11 2 -11 2 -9.375 0 C-5.91616747 -1.45635054 -3.58701629 -0.91305869 0 0 Z M-8.875 2.0625 C-10.68060316 5.17214989 -9.79952488 7.61739473 -9 11 C-7.17796419 13.22966747 -7.17796419 13.22966747 -4.5625 13.3125 C-2.02358754 13.17519597 -2.02358754 13.17519597 -0.1875 11.9375 C1.66501934 8.91496844 1.37643703 6.45067281 1 3 C-2.56307433 0.62461711 -5.01617883 -0.12416533 -8.875 2.0625 Z " fill="#797D7D" transform="translate(1134,160)"/>
<path d="M0 0 C2.97 0 5.94 0 9 0 C9 2.97 9 5.94 9 9 C6.03 9 3.06 9 0 9 C0 6.03 0 3.06 0 0 Z " fill="#D4EAFA" transform="translate(993,380)"/>
<path d="M0 0 C2.97 0 5.94 0 9 0 C9 2.97 9 5.94 9 9 C6.03 9 3.06 9 0 9 C0 6.03 0 3.06 0 0 Z " fill="#D1E9F9" transform="translate(965,380)"/>
<path d="M0 0 C2.97 0 5.94 0 9 0 C9 2.97 9 5.94 9 9 C6.03 9 3.06 9 0 9 C0 6.03 0 3.06 0 0 Z " fill="#EDF7F9" transform="translate(910,380)"/>
<path d="M0 0 C2.97 0 5.94 0 9 0 C9 2.97 9 5.94 9 9 C6.03 9 3.06 9 0 9 C0 6.03 0 3.06 0 0 Z " fill="#D4EAFA" transform="translate(1021,333)"/>
<path d="M0 0 C2.97 0 5.94 0 9 0 C9 2.97 9 5.94 9 9 C6.03 9 3.06 9 0 9 C0 6.03 0 3.06 0 0 Z " fill="#EDF7F9" transform="translate(910,333)"/>
<path d="M0 0 C0.66 0 1.32 0 2 0 C2.66 2.31 3.32 4.62 4 7 C4.99 4.69 5.98 2.38 7 0 C7.99 0.33 8.98 0.66 10 1 C10.33 2.65 10.66 4.3 11 6 C11.66 4.02 12.32 2.04 13 0 C14.65 0 16.3 0 18 0 C17.52949219 0.39832031 17.05898437 0.79664063 16.57421875 1.20703125 C14.68239447 3.3617393 14.33939211 4.89091882 13.8125 7.6875 C13.65394531 8.49574219 13.49539063 9.30398438 13.33203125 10.13671875 C13.22246094 10.75160156 13.11289063 11.36648438 13 12 C12.01 12 11.02 12 10 12 C9.34 9.69 8.68 7.38 8 5 C7.01 7.31 6.02 9.62 5 12 C4.34 12 3.68 12 3 12 C2.01 8.04 1.02 4.08 0 0 Z " fill="#E0E3DA" transform="translate(1017,640)"/>
<path d="M0 0 C1.98 0 3.96 0 6 0 C8 2 8 2 8.25 5 C8 8 8 8 6 10 C5.01 10 4.02 10 3 10 C2.67 11.32 2.34 12.64 2 14 C1.34 14 0.68 14 0 14 C0 9.38 0 4.76 0 0 Z " fill="#B1BBBA" transform="translate(832,166)"/>
<path d="M0 0 C2.5625 0.1875 2.5625 0.1875 4.5625 2.1875 C4.8125 5.6875 4.8125 5.6875 4.5625 9.1875 C3.9025 9.8475 3.2425 10.5075 2.5625 11.1875 C-1.99305556 10.63194444 -1.99305556 10.63194444 -3.4375 9.1875 C-3.5703125 7.375 -3.5703125 7.375 -3.5625 5.1875 C-3.56507813 4.465625 -3.56765625 3.74375 -3.5703125 3 C-3.36228014 0.16097012 -2.84416607 0.21878201 0 0 Z " fill="#E6F6F5" transform="translate(887.4375,619.8125)"/>
<path d="M0 0 C4.55555556 0.55555556 4.55555556 0.55555556 6 2 C6.1875 5.4375 6.1875 5.4375 6 9 C5.34 9.66 4.68 10.32 4 11 C-0.55555556 10.44444444 -0.55555556 10.44444444 -2 9 C-2.1875 5.5625 -2.1875 5.5625 -2 2 C-1.34 1.34 -0.68 0.68 0 0 Z " fill="#F2FAF5" transform="translate(873,611)"/>
<path d="M0 0 C6 0 6 0 8 1 C8.125 3.875 8.125 3.875 8 7 C7.34 7.66 6.68 8.32 6 9 C4.68 9 3.36 9 2 9 C2 9.99 2 10.98 2 12 C1.34 12 0.68 12 0 12 C0 8.04 0 4.08 0 0 Z " fill="#D9EAED" transform="translate(1069,643)"/>
<path d="M0 0 C4.875 1.75 4.875 1.75 6 4 C6.375 7.375 6.375 7.375 6 11 C3.9375 13.5 3.9375 13.5 1 15 C-2.54762251 14.93883409 -4.9355747 14.686726 -7.9375 12.75 C-9.35440053 10.41628148 -9.21718696 8.67863922 -9 6 C-8.34 6 -7.68 6 -7 6 C-6.34 7.65 -5.68 9.3 -5 11 C-2.69 11 -0.38 11 2 11 C2.76716851 8.14921909 2.76716851 8.14921909 3 5 C1.64555699 3.22809091 1.64555699 3.22809091 0 2 C0 1.34 0 0.68 0 0 Z " fill="#458099" transform="translate(999,637)"/>
<path d="M0 0 C0.66 0 1.32 0 2 0 C2 3.96 2 7.92 2 12 C0.02 12 -1.96 12 -4 12 C-6 10 -6 10 -6.25 7.5 C-6 5 -6 5 -4 3 C-2.68 3 -1.36 3 0 3 C0 2.01 0 1.02 0 0 Z " fill="#EAEADA" transform="translate(1051,640)"/>
<path d="M0 0 C2.97 0 5.94 0 9 0 C9 2.64 9 5.28 9 8 C6.03 8 3.06 8 0 8 C0 5.36 0 2.72 0 0 Z " fill="#DAECFD" transform="translate(1002,357)"/>
<path d="M0 0 C2.97 0 5.94 0 9 0 C9 2.64 9 5.28 9 8 C6.03 8 3.06 8 0 8 C0 5.36 0 2.72 0 0 Z " fill="#F2F9FB" transform="translate(919,357)"/>
<path d="M0 0 C0.66 0 1.32 0 2 0 C2 3.96 2 7.92 2 12 C0.02 12 -1.96 12 -4 12 C-6 9 -6 9 -5.625 6.3125 C-5.41875 5.549375 -5.2125 4.78625 -5 4 C-3.35 3.67 -1.7 3.34 0 3 C0 2.01 0 1.02 0 0 Z " fill="#DFF3F0" transform="translate(871,640)"/>
<path d="M0 0 C-0.1875 2.3125 -0.1875 2.3125 -1 5 C-3.25 6.875 -3.25 6.875 -6 8 C-8.8125 7.6875 -8.8125 7.6875 -11 7 C-11.625 5.125 -11.625 5.125 -12 3 C-8.6463584 -0.3536416 -4.57608788 0 0 0 Z " fill="#3595A2" transform="translate(978,540)"/>
<path d="M0 0 C4.55555556 0.55555556 4.55555556 0.55555556 6 2 C6.1875 4.9375 6.1875 4.9375 6 8 C5.34 8.66 4.68 9.32 4 10 C-0.55555556 9.44444444 -0.55555556 9.44444444 -2 8 C-2.1875 5.0625 -2.1875 5.0625 -2 2 C-1.34 1.34 -0.68 0.68 0 0 Z " fill="#A3ACAD" transform="translate(800,166)"/>
<path d="M0 0 C0.66 0 1.32 0 2 0 C2 0.99 2 1.98 2 3 C2.99 3 3.98 3 5 3 C5.66 4.32 6.32 5.64 7 7 C7.66 5.68 8.32 4.36 9 3 C10.10153804 6.30461413 9.95317786 6.98668832 8.8125 10.125 C8.57144531 10.82882812 8.33039062 11.53265625 8.08203125 12.2578125 C7 14 7 14 4.88671875 14.7421875 C4.26410156 14.82726562 3.64148438 14.91234375 3 15 C3.37125 14.46375 3.7425 13.9275 4.125 13.375 C5.34857383 10.05387103 4.30463011 8.18909583 3 5 C3 7.31 3 9.62 3 12 C2.01 12 1.02 12 0 12 C0 9.36 0 6.72 0 4 C-0.66 3.67 -1.32 3.34 -2 3 C-1.34 3 -0.68 3 0 3 C0 2.01 0 1.02 0 0 Z " fill="#E0EBE2" transform="translate(879,640)"/>
<path d="M0 0 C0.33 0 0.66 0 1 0 C1 4.29 1 8.58 1 13 C1.66 13 2.32 13 3 13 C3 13.66 3 14.32 3 15 C2.34 15 1.68 15 1 15 C1 16.65 1 18.3 1 20 C0.01 20 -0.98 20 -2 20 C-2 18.35 -2 16.7 -2 15 C-4.64 15 -7.28 15 -10 15 C-9.67 14.01 -9.34 13.02 -9 12 C-6.36 12.33 -3.72 12.66 -1 13 C-1.020625 11.783125 -1.04125 10.56625 -1.0625 9.3125 C-1.06824116 6.08022678 -0.78766315 3.15065259 0 0 Z " fill="#F9F4ED" transform="translate(1067,611)"/>
<path d="M0 0 C0.33 0 0.66 0 1 0 C1 3.96 1 7.92 1 12 C-0.65 12 -2.3 12 -4 12 C-6 10 -6 10 -6.25 7.5 C-6 5 -6 5 -4 3 C-2.68 3 -1.36 3 0 3 C0 2.01 0 1.02 0 0 Z " fill="#E2EDEA" transform="translate(1102,640)"/>
<path d="M0 0 C0 4.95 0 9.9 0 15 C-0.66 15 -1.32 15 -2 15 C-3.65 12.03 -5.3 9.06 -7 6 C-1.125 0 -1.125 0 0 0 Z " fill="#4D6F9C" transform="translate(1095,616)"/>
<path d="M0 0 C0.66 0 1.32 0 2 0 C2 1.65 2 3.3 2 5 C3.98 3.35 5.96 1.7 8 0 C8.66 0.33 9.32 0.66 10 1 C9.484375 1.4125 8.96875 1.825 8.4375 2.25 C6.77609593 3.86539749 6.77609593 3.86539749 7.125 5.875 C8.17527413 8.42566574 9.51656331 10.67809909 11 13 C10.01 13 9.02 13 8 13 C6.98133771 11.34467377 5.98189187 9.67739862 5 8 C4.01 7.67 3.02 7.34 2 7 C2 8.98 2 10.96 2 13 C1.34 13 0.68 13 0 13 C0 8.71 0 4.42 0 0 Z " fill="#7B7274" transform="translate(786,163)"/>
<path d="M0 0 C1 1 1 1 1.09765625 2.84765625 C1.04882812 5.92382812 1.04882812 5.92382812 1 9 C-1.31 9 -3.62 9 -6 9 C-6.33 7.68 -6.66 6.36 -7 5 C-6.195625 4.71125 -5.39125 4.4225 -4.5625 4.125 C-1.8673532 3.26737432 -1.8673532 3.26737432 -1 1 C-2.98 1.33 -4.96 1.66 -7 2 C-7 1.34 -7 0.68 -7 0 C-4.31633121 -1.3418344 -2.84719317 -0.73004953 0 0 Z " fill="#858A8F" transform="translate(829,167)"/>
<path d="M0 0 C1.66611905 -0.042721 3.33382885 -0.04063832 5 0 C6 1 6 1 6.125 3.5 C6 6 6 6 5 7 C3.14712498 7.07226502 1.29166122 7.0838122 -0.5625 7.0625 C-1.57441406 7.05347656 -2.58632813 7.04445313 -3.62890625 7.03515625 C-4.41136719 7.02355469 -5.19382812 7.01195312 -6 7 C-5.36578125 6.72414063 -4.7315625 6.44828125 -4.078125 6.1640625 C-1.30455568 4.6104466 -0.93392216 2.95742018 0 0 Z " fill="#40839A" transform="translate(995,620)"/>
<path d="M0 0 C0.99 0.33 1.98 0.66 3 1 C-0.3 7.27 -3.6 13.54 -7 20 C-7.99 19.67 -8.98 19.34 -10 19 C-6.7 12.73 -3.4 6.46 0 0 Z " fill="#DFF1EB" transform="translate(885,611)"/>
<path d="M0 0 C3.125 0.375 3.125 0.375 6 1 C6 2.32 6 3.64 6 5 C4.02 5 2.04 5 0 5 C0.33 5.66 0.66 6.32 1 7 C2.65 6.67 4.3 6.34 6 6 C5.01 7.485 5.01 7.485 4 9 C-0.875 8.125 -0.875 8.125 -2 7 C-2.1875 4.5625 -2.1875 4.5625 -2 2 C-1.34 1.34 -0.68 0.68 0 0 Z " fill="#CAD5DC" transform="translate(1089,643)"/>
<path d="M0 0 C3.125 0.375 3.125 0.375 6 1 C6 2.32 6 3.64 6 5 C4.02 5 2.04 5 0 5 C0.33 5.66 0.66 6.32 1 7 C2.65 6.67 4.3 6.34 6 6 C5.01 7.485 5.01 7.485 4 9 C-0.875 8.125 -0.875 8.125 -2 7 C-2.1875 4.5625 -2.1875 4.5625 -2 2 C-1.34 1.34 -0.68 0.68 0 0 Z " fill="#CAD5DC" transform="translate(1080,643)"/>
<path d="M0 0 C0.33 0 0.66 0 1 0 C1.48275862 6.27586207 1.48275862 6.27586207 -0.625 9.4375 C-3.68118452 11.44814771 -5.40649325 11.53520313 -9 11 C-10.875 9.6875 -10.875 9.6875 -12 8 C-12 7.01 -12 6.02 -12 5 C-11.01 5 -10.02 5 -9 5 C-8.01 6.485 -8.01 6.485 -7 8 C-5.06890419 8.04289755 -5.06890419 8.04289755 -3 7 C-1.20728609 3.51202512 -1.20728609 3.51202512 0 0 Z " fill="#F2F6F0" transform="translate(859,620)"/>
<path d="M0 0 C2.64 0 5.28 0 8 0 C8.625 2.375 8.625 2.375 9 5 C8.34 5.66 7.68 6.32 7 7 C4.375 6.625 4.375 6.625 2 6 C1.34 4.02 0.68 2.04 0 0 Z " fill="#3E7D96" transform="translate(992,641)"/>
<path d="M0 0 C0.99 0 1.98 0 3 0 C1.22089072 6.75052102 -0.70438191 13.40620337 -3 20 C-3.66 20 -4.32 20 -5 20 C-4.32930848 15.41105799 -3.23877704 11.07452793 -1.9375 6.625 C-1.57527344 5.37976563 -1.21304687 4.13453125 -0.83984375 2.8515625 C-0.56269531 1.91054688 -0.28554687 0.96953125 0 0 Z " fill="#E0EFF0" transform="translate(1122,611)"/>
<path d="M0 0 C0.66 0 1.32 0 2 0 C2 2.64 2 5.28 2 8 C3.32 8 4.64 8 6 8 C6 5.36 6 2.72 6 0 C6.66 0 7.32 0 8 0 C8 3.3 8 6.6 8 10 C5.66705225 10.04241723 3.33297433 10.04092937 1 10 C0 9 0 9 -0.09765625 6.93359375 C-0.08605469 6.10988281 -0.07445312 5.28617188 -0.0625 4.4375 C-0.05347656 3.61121094 -0.04445313 2.78492188 -0.03515625 1.93359375 C-0.02355469 1.29550781 -0.01195312 0.65742188 0 0 Z " fill="#84888B" transform="translate(842,166)"/>
<path d="M0 0 C0.66 0 1.32 0 2 0 C2 0.99 2 1.98 2 3 C3.65 3.33 5.3 3.66 7 4 C7 6.64 7 9.28 7 12 C6.34 12 5.68 12 5 12 C5 9.36 5 6.72 5 4 C4.01 4.495 4.01 4.495 3 5 C2.59270772 7.32156597 2.25561323 9.6568787 2 12 C1.34 12 0.68 12 0 12 C0 8.04 0 4.08 0 0 Z " fill="#DCF1EA" transform="translate(831,640)"/>
<path d="M0 0 C1.98 0.495 1.98 0.495 4 1 C3.67 5.29 3.34 9.58 3 14 C2.01 14 1.02 14 0 14 C-0.19393875 11.85473901 -0.37998676 9.70876323 -0.5625 7.5625 C-0.71912109 5.77005859 -0.71912109 5.77005859 -0.87890625 3.94140625 C-0.91886719 2.97074219 -0.95882813 2.00007812 -1 1 C-0.67 0.67 -0.34 0.34 0 0 Z " fill="#F1EEE1" transform="translate(1104,617)"/>
<path d="M0 0 C4.62 0 9.24 0 14 0 C14 0.99 14 1.98 14 3 C9.38 3 4.76 3 0 3 C0 2.01 0 1.02 0 0 Z " fill="#F8FDFD" transform="translate(965,521)"/>
<path d="M0 0 C1.65 0.33 3.3 0.66 5 1 C5 2.32 5 3.64 5 5 C7.37305578 5.41780879 7.37305578 5.41780879 10 5 C11.8624438 2.59141286 11.8624438 2.59141286 13 0 C13.625 1.8125 13.625 1.8125 14 4 C13.01 5.485 13.01 5.485 12 7 C8.5 7.375 8.5 7.375 5 7 C3 4 3 4 3 1 C2.34 1 1.68 1 1 1 C1 2.32 1 3.64 1 5 C0.34 5 -0.32 5 -1 5 C-0.67 3.35 -0.34 1.7 0 0 Z " fill="#E5EDF1" transform="translate(989,642)"/>
<path d="M0 0 C0.33 0 0.66 0 1 0 C1.1875 3.375 1.1875 3.375 1 7 C-2.46923881 9.31282587 -3.92205575 9.42478586 -8 9 C-9.875 7.6875 -9.875 7.6875 -11 6 C-11 5.01 -11 4.02 -11 3 C-10.01 3 -9.02 3 -8 3 C-8 3.99 -8 4.98 -8 6 C-5.58354218 6.16687448 -5.58354218 6.16687448 -3 6 C-0.8614515 3.8614515 -0.57344937 2.86724686 0 0 Z " fill="#F4F7F5" transform="translate(1053,622)"/>
<path d="M0 0 C0.66 0 1.32 0 2 0 C2.66 2.31 3.32 4.62 4 7 C4.99 4.69 5.98 2.38 7 0 C7.66 0 8.32 0 9 0 C9 1.65 9 3.3 9 5 C8.01 5.495 8.01 5.495 7 6 C6.27306096 7.97888961 5.60183749 9.97954558 5 12 C4.34 12 3.68 12 3 12 C2.01 8.04 1.02 4.08 0 0 Z " fill="#E0F0F0" transform="translate(1017,640)"/>
<path d="M0 0 C0.66 0 1.32 0 2 0 C2 2.64 2 5.28 2 8 C2.66 7.67 3.32 7.34 4 7 C4.40729228 4.67843403 4.74438677 2.3431213 5 0 C5.66 0 6.32 0 7 0 C7 2.97 7 5.94 7 9 C5.00045254 9.04254356 2.99958364 9.04080783 1 9 C0 8 0 8 -0.09765625 6.15234375 C-0.06510417 4.1015625 -0.03255208 2.05078125 0 0 Z " fill="#DFF1EA" transform="translate(840,643)"/>
<path d="M0 0 C1.99954746 -0.04254356 4.00041636 -0.04080783 6 0 C7 1 7 1 7.09765625 2.84765625 C7.06510417 4.8984375 7.03255208 6.94921875 7 9 C6.34 9 5.68 9 5 9 C5 6.36 5 3.72 5 1 C4.01 1.495 4.01 1.495 3 2 C2.59270772 4.32156597 2.25561323 6.6568787 2 9 C1.34 9 0.68 9 0 9 C0 6.03 0 3.06 0 0 Z " fill="#E6EADD" transform="translate(1037,643)"/>
<path d="M0 0 C1.99954746 -0.04254356 4.00041636 -0.04080783 6 0 C7 1 7 1 7.09765625 2.84765625 C7.06510417 4.8984375 7.03255208 6.94921875 7 9 C6.34 9 5.68 9 5 9 C4.87625 7.865625 4.7525 6.73125 4.625 5.5625 C4.41875 4.386875 4.2125 3.21125 4 2 C3.34 1.67 2.68 1.34 2 1 C2 3.64 2 6.28 2 9 C1.34 9 0.68 9 0 9 C0 6.03 0 3.06 0 0 Z " fill="#E6EBD8" transform="translate(849,643)"/>
<path d="M0 0 C3.625 0.375 3.625 0.375 7 1 C7 1.66 7 2.32 7 3 C4.03 2.505 4.03 2.505 1 2 C1 2.66 1 3.32 1 4 C2.98 4.66 4.96 5.32 7 6 C7 7.65 7 9.3 7 11 C6.34 11 5.68 11 5 11 C5 9.68 5 8.36 5 7 C2.03 6.505 2.03 6.505 -1 6 C-1.625 4.125 -1.625 4.125 -2 2 C-1.34 1.34 -0.68 0.68 0 0 Z " fill="#E7EBE8" transform="translate(1061,640)"/>
<path d="M0 0 C4.29 0 8.58 0 13 0 C12.34 1.65 11.68 3.3 11 5 C10.34 4.34 9.68 3.68 9 3 C6.79749008 2.53993654 6.79749008 2.53993654 4.375 2.375 C3.14910156 2.26285156 3.14910156 2.26285156 1.8984375 2.1484375 C1.27195312 2.09945312 0.64546875 2.05046875 0 2 C0 1.34 0 0.68 0 0 Z " fill="#FAFAF4" transform="translate(832,611)"/>
<path d="M0 0 C0.99 0.33 1.98 0.66 3 1 C3.07654536 5.51617599 3.10228696 9.59085217 2 14 C1.34 14 0.68 14 0 14 C0 9.38 0 4.76 0 0 Z " fill="#7E777C" transform="translate(832,166)"/>
<path d="M0 0 C0.66 0 1.32 0 2 0 C2.226875 0.78375 2.45375 1.5675 2.6875 2.375 C3.78125 5.21875 3.78125 5.21875 6.625 6.3125 C7.40875 6.539375 8.1925 6.76625 9 7 C9 7.66 9 8.32 9 9 C3.6 8.4 3.6 8.4 1.125 6.75 C-0.37422891 4.41786614 -0.22023906 2.71628175 0 0 Z " fill="#417E97" transform="translate(990,643)"/>
<path d="M0 0 C0.66 0 1.32 0 2 0 C3.29676812 4.61073111 2.71109139 8.33840089 2 13 C1.34 13 0.68 13 0 13 C0 8.71 0 4.42 0 0 Z " fill="#7F767E" transform="translate(812,163)"/>
<path d="M0 0 C0.33 0 0.66 0 1 0 C1 2.64 1 5.28 1 8 C-0.98 8 -2.96 8 -5 8 C-4.19185349 6.66402348 -3.37836819 5.331275 -2.5625 4 C-2.11003906 3.2575 -1.65757813 2.515 -1.19140625 1.75 C-0.79824219 1.1725 -0.40507813 0.595 0 0 Z " fill="#597AA7" transform="translate(1064,616)"/>
<path d="M0 0 C0.33 0 0.66 0 1 0 C1 2.64 1 5.28 1 8 C-0.65 8 -2.3 8 -4 8 C-2.87548273 5.0280615 -1.77706209 2.66559313 0 0 Z " fill="#4F7EA9" transform="translate(1025,616)"/>
<path d="M0 0 C0.99 0 1.98 0 3 0 C0.98604326 4.33775297 -0.9825017 7.3216678 -5 10 C-4.38390949 5.99541169 -2.44939347 3.16980331 0 0 Z " fill="#DBEDEE" transform="translate(1022,616)"/>
<path d="M0 0 C0.66 0 1.32 0 2 0 C1.67 4.29 1.34 8.58 1 13 C0.67 13 0.34 13 0 13 C0 10.36 0 7.72 0 5 C-0.99 4.67 -1.98 4.34 -3 4 C-1.625 2 -1.625 2 0 0 Z " fill="#E8FBFD" transform="translate(1026,611)"/>
<path d="M0 0 C0.99 0.33 1.98 0.66 3 1 C3 2.65 3 4.3 3 6 C1.68 6 0.36 6 -1 6 C-1.042721 4.33388095 -1.04063832 2.66617115 -1 1 C-0.67 0.67 -0.34 0.34 0 0 Z " fill="#637297" transform="translate(1072,644)"/>
<path d="M0 0 C0.99 0.33 1.98 0.66 3 1 C3 2.65 3 4.3 3 6 C1.68 6 0.36 6 -1 6 C-1.042721 4.33388095 -1.04063832 2.66617115 -1 1 C-0.67 0.67 -0.34 0.34 0 0 Z " fill="#497DA8" transform="translate(1048,644)"/>
<path d="M0 0 C0.99 0.33 1.98 0.66 3 1 C3 2.65 3 4.3 3 6 C1.68 6 0.36 6 -1 6 C-1.042721 4.33388095 -1.04063832 2.66617115 -1 1 C-0.67 0.67 -0.34 0.34 0 0 Z " fill="#4892A3" transform="translate(868,644)"/>
<path d="M0 0 C0.99 0.33 1.98 0.66 3 1 C3 2.65 3 4.3 3 6 C1.68 6 0.36 6 -1 6 C-1.042721 4.33388095 -1.04063832 2.66617115 -1 1 C-0.67 0.67 -0.34 0.34 0 0 Z " fill="#3993AA" transform="translate(887,622)"/>
<path d="M0 0 C0.99 0 1.98 0 3 0 C1.33248852 3.94139078 -1.22710649 6.7892812 -4 10 C-5 7 -5 7 -4.109375 5.17578125 C-3.66078125 4.56089844 -3.2121875 3.94601562 -2.75 3.3125 C-2.31171875 2.68988281 -1.8734375 2.06726563 -1.421875 1.42578125 C-0.95265625 0.95527344 -0.4834375 0.48476563 0 0 Z " fill="#DDEFF2" transform="translate(1061,616)"/>
<path d="M0 0 C0.99 0.33 1.98 0.66 3 1 C3 2.65 3 4.3 3 6 C1.68 6 0.36 6 -1 6 C-1.042721 4.33388095 -1.04063832 2.66617115 -1 1 C-0.67 0.67 -0.34 0.34 0 0 Z " fill="#3D98AB" transform="translate(874,613)"/>
<path d="M0 0 C1.65 0 3.3 0 5 0 C4.34 0.66 3.68 1.32 3 2 C2.54188325 3.97235333 2.54188325 3.97235333 2.375 6.125 C2.25125 7.40375 2.1275 8.6825 2 10 C1.34 10 0.68 10 0 10 C0 6.7 0 3.4 0 0 Z " fill="#7E777F" transform="translate(852,166)"/>
<path d="M0 0 C0.66 0 1.32 0 2 0 C2.0825 0.78375 2.165 1.5675 2.25 2.375 C2.72806339 5.14749104 2.72806339 5.14749104 5.0625 6.3125 C5.701875 6.539375 6.34125 6.76625 7 7 C4.625 7.625 4.625 7.625 2 8 C0 6 0 6 -0.125 2.875 C-0.08375 1.92625 -0.0425 0.9775 0 0 Z " fill="#F6F9F3" transform="translate(884,623)"/>
<path d="M0 0 C1.66666667 1.66666667 3.33333333 3.33333333 5 5 C3.6875 6.5 3.6875 6.5 2 8 C1.01 8 0.02 8 -1 8 C-0.67 5.36 -0.34 2.72 0 0 Z " fill="#DEEEF1" transform="translate(1043,613)"/>
<path d="M0 0 C1.66666667 1.66666667 3.33333333 3.33333333 5 5 C3.6875 6.5 3.6875 6.5 2 8 C1.01 8 0.02 8 -1 8 C-0.67 5.36 -0.34 2.72 0 0 Z " fill="#D9F2F3" transform="translate(848,613)"/>
<path d="M0 0 C1.65 0.33 3.3 0.66 5 1 C4.67 1.99 4.34 2.98 4 4 C2.02 4 0.04 4 -2 4 C-1.34 2.68 -0.68 1.36 0 0 Z " fill="#EAEFEC" transform="translate(1046,528)"/>
<path d="M0 0 C-0.33 0.99 -0.66 1.98 -1 3 C-2.33076989 3.34342449 -3.66431979 3.67619874 -5 4 C-5.66 4.99 -6.32 5.98 -7 7 C-7.1875 4.625 -7.1875 4.625 -7 2 C-4 0 -4 0 0 0 Z " fill="#E3F0DF" transform="translate(828,168)"/>
<path d="M0 0 C0.66 0 1.32 0 2 0 C2 3.3 2 6.6 2 10 C1.01 9.67 0.02 9.34 -1 9 C-0.67 6.03 -0.34 3.06 0 0 Z " fill="#798691" transform="translate(848,166)"/>
<path d="M0 0 C0.99 0 1.98 0 3 0 C1.95125002 2.62187494 1.35068687 3.79371361 -1.125 5.25 C-1.74375 5.4975 -2.3625 5.745 -3 6 C-3 5.34 -3 4.68 -3 4 C-3.99 3.67 -4.98 3.34 -6 3 C-5.195625 2.87625 -4.39125 2.7525 -3.5625 2.625 C-2.716875 2.41875 -1.87125 2.2125 -1 2 C-0.67 1.34 -0.34 0.68 0 0 Z " fill="#558AA2" transform="translate(1002,646)"/>
<path d="M0 0 C1.98 0 3.96 0 6 0 C6.33 1.32 6.66 2.64 7 4 C4.69 3.67 2.38 3.34 0 3 C0 2.01 0 1.02 0 0 Z " fill="#EEF4F7" transform="translate(1130,616)"/>
<path d="M0 0 C0.66 0 1.32 0 2 0 C2 2.31 2 4.62 2 7 C1.01 6.67 0.02 6.34 -1 6 C-1.042721 4.33388095 -1.04063832 2.66617115 -1 1 C-0.67 0.67 -0.34 0.34 0 0 Z " fill="#4A6F97" transform="translate(1099,644)"/>
<path d="M0 0 C0.66 0 1.32 0 2 0 C2 2.97 2 5.94 2 9 C1.01 8.67 0.02 8.34 -1 8 C-0.67 5.36 -0.34 2.72 0 0 Z " fill="#D4F3F2" transform="translate(845,643)"/>
<path d="M0 0 C0.66 0.33 1.32 0.66 2 1 C-0.31 3.31 -2.62 5.62 -5 8 C-5.33 7.34 -5.66 6.68 -6 6 C-4 4 -2 2 0 0 Z " fill="#DAEDEE" transform="translate(1023,460)"/>
<path d="M0 0 C0.33 0 0.66 0 1 0 C1 1.65 1 3.3 1 5 C-0.98 5.33 -2.96 5.66 -5 6 C-5.33 5.01 -5.66 4.02 -6 3 C-4.02 3 -2.04 3 0 3 C0 2.01 0 1.02 0 0 Z " fill="#4E6DA5" transform="translate(1095,645)"/>
<path d="M0 0 C0.33 0 0.66 0 1 0 C1 1.65 1 3.3 1 5 C-0.98 5.33 -2.96 5.66 -5 6 C-5.33 5.01 -5.66 4.02 -6 3 C-4.02 3 -2.04 3 0 3 C0 2.01 0 1.02 0 0 Z " fill="#4D6A9B" transform="translate(1086,645)"/>
<path d="M0 0 C1.65 0 3.3 0 5 0 C4.319375 0.61875 4.319375 0.61875 3.625 1.25 C1.94049626 3.06408095 1.00734029 4.75285627 0 7 C-0.93423645 3.98968256 -1.04449911 3.13349732 0 0 Z " fill="#C5DDE2" transform="translate(1030,640)"/>
<path d="M0 0 C0.66 0.33 1.32 0.66 2 1 C-0.31 3.31 -2.62 5.62 -5 8 C-5 5 -5 5 -2.5 2.3125 C-1.675 1.549375 -0.85 0.78625 0 0 Z " fill="#DAF1F0" transform="translate(925,445)"/>
</svg>
