<?xml version="1.0" encoding="UTF-8"?>
<svg version="1.1" xmlns="http://www.w3.org/2000/svg" width="1920" height="908">
<path d="M0 0 C633.6 0 1267.2 0 1920 0 C1920 299.64 1920 599.28 1920 908 C1286.4 908 652.8 908 0 908 C0 608.36 0 308.72 0 0 Z " fill="#3B1368" transform="translate(0,0)"/>
<path d="M0 0 C0.84303814 0.00119778 1.68607628 0.00239555 2.55466104 0.00362962 C3.4457782 0.0009778 4.33689537 -0.00167403 5.25501609 -0.00440621 C8.28040068 -0.01214588 11.30574499 -0.01266016 14.33113885 -0.01325613 C16.50633384 -0.01726769 18.68152808 -0.02170539 20.8567214 -0.02653569 C26.86483941 -0.0385413 32.87294938 -0.04415884 38.88107705 -0.04871684 C45.34884191 -0.05465787 51.81659707 -0.0662714 58.2843554 -0.07700735 C73.17995468 -0.10070088 88.0755578 -0.11494389 102.97117027 -0.12723677 C108.12306143 -0.13148918 113.27495222 -0.13605485 118.42684293 -0.14082009 C145.8014363 -0.16607797 173.17603025 -0.18813299 200.55063272 -0.20054823 C206.89586411 -0.20346972 213.24109549 -0.2064372 219.58632684 -0.20945364 C220.76883723 -0.21001001 220.76883723 -0.21001001 221.97523672 -0.21057761 C247.54259385 -0.22273665 273.1098822 -0.25368524 298.67720702 -0.29537517 C324.94740026 -0.33813325 351.21755716 -0.36478549 377.48778615 -0.37002295 C381.19587774 -0.37076343 384.90396926 -0.37167413 388.61206079 -0.37268072 C389.34188062 -0.37287134 390.07170046 -0.37306195 390.82363605 -0.37325834 C402.58409208 -0.37677629 414.34446216 -0.39709436 426.1048866 -0.42347736 C437.91970694 -0.44958331 449.73441904 -0.45695052 461.54926416 -0.44637607 C467.95388773 -0.44117109 474.35823725 -0.44419538 480.76282144 -0.46884161 C486.62040365 -0.49119554 492.47751274 -0.49070252 498.33510247 -0.47163774 C500.4596492 -0.46881819 502.58422709 -0.4745435 504.7087234 -0.48945068 C507.5867967 -0.50841851 510.46315881 -0.49686179 513.34119058 -0.47738844 C514.17486405 -0.49023766 515.00853753 -0.50308688 515.86747384 -0.51632547 C520.21022123 -0.45132383 521.71470381 -0.2607682 525.19075918 2.61677104 C525.85367932 3.44964912 526.51659946 4.2825272 527.19960809 5.14064401 C527.52960809 5.47064401 527.85960809 5.80064401 528.19960809 6.14064401 C528.30865108 8.99914453 528.35185589 11.83385058 528.35350823 14.69319528 C528.35789049 15.60115406 528.36227274 16.50911283 528.36678779 17.4445855 C528.38022836 20.51156794 528.38636641 23.57852162 528.39247918 26.64552683 C528.40037602 28.83457948 528.4086447 31.02363081 528.41725945 33.21268076 C528.44352832 40.42303077 528.45879209 47.63338675 528.47304559 54.84376901 C528.4784033 57.32165144 528.4837808 59.79953383 528.48917794 62.27741617 C528.51081394 72.58176666 528.52955209 82.88611556 528.54080033 93.19048303 C528.54373015 95.86609012 528.5466918 98.54169717 528.54970574 101.21730417 C528.55045179 101.88233421 528.55119785 102.54736425 528.5519665 103.23254672 C528.56462008 114.00565239 528.59784126 124.77859301 528.63950758 135.55162153 C528.68191451 146.60659154 528.70508626 157.66147269 528.7107209 168.71652287 C528.71438136 174.92575703 528.72647648 181.13471161 528.75882363 187.3438682 C528.78881456 193.18466768 528.79524802 199.02501712 528.78343987 204.86587709 C528.78321839 207.01172109 528.79158522 209.15758543 528.80909371 211.30335802 C528.83167315 214.22950497 528.82354231 217.15400455 528.8076098 220.08015817 C528.82149188 220.93259332 528.83537397 221.78502846 528.84967673 222.66329497 C528.79058001 227.05776201 528.62367355 228.62608152 525.72410798 232.14442438 C524.47448053 233.1325531 524.47448053 233.1325531 523.19960809 234.14064401 C522.86960809 234.47064401 522.53960809 234.80064401 522.19960809 235.14064401 C519.40663659 235.24422624 516.63818857 235.28162756 513.84455514 235.2776584 C512.50787939 235.28163614 512.50787939 235.28163614 511.14420009 235.28569424 C508.1188155 235.29343391 505.09347118 235.29394818 502.06807733 235.29454416 C499.89288234 235.29855571 497.7176881 235.30299342 495.54249477 235.30782372 C489.53437676 235.31982932 483.52626679 235.32544686 477.51813912 235.33000487 C471.05037427 235.33594589 464.58261911 235.34755943 458.11486077 235.35829538 C443.21926149 235.38198891 428.32365837 235.39623192 413.4280459 235.4085248 C408.27615475 235.41277721 403.12426395 235.41734288 397.97237325 235.42210811 C370.59777988 235.44736599 343.22318593 235.46942101 315.84858346 235.48183626 C309.50335206 235.48475774 303.15812069 235.48772523 296.81288934 235.49074167 C295.63037895 235.49129803 295.63037895 235.49129803 294.42397946 235.49186564 C268.85662232 235.50402467 243.28933397 235.53497327 217.72200916 235.57666319 C191.45181592 235.61942128 165.18165901 235.64607352 138.91143002 235.65131097 C135.20333844 235.65205146 131.49524691 235.65296215 127.78715539 235.65396875 C127.05733555 235.65415937 126.32751571 235.65434998 125.57558012 235.65454637 C113.81512409 235.65806432 102.05475401 235.67838239 90.29432958 235.70476539 C78.47950923 235.73087134 66.66479713 235.73823855 54.84995201 235.7276641 C48.44532844 235.72245912 42.04097893 235.72548341 35.63639474 235.75012964 C29.77881253 235.77248357 23.92170344 235.77199055 18.06411371 235.75292577 C15.93956697 235.75010622 13.81498909 235.75583153 11.69049278 235.77073871 C8.81241948 235.78970654 5.93605736 235.77814982 3.0580256 235.75867647 C2.22435212 235.77152569 1.39067864 235.78437491 0.53174233 235.7976135 C-3.81100505 235.73261186 -5.31548763 235.54205623 -8.79154301 232.66451699 C-9.78592322 231.41519986 -9.78592322 231.41519986 -10.80039191 230.14064401 C-11.13039191 229.81064401 -11.46039191 229.48064401 -11.80039191 229.14064401 C-11.9094349 226.2821435 -11.95263972 223.44743745 -11.95429206 220.58809274 C-11.95867431 219.68013397 -11.96305657 218.7721752 -11.96757162 217.83670253 C-11.98101219 214.76972008 -11.98715023 211.7027664 -11.99326301 208.6357612 C-12.00115985 206.44670855 -12.00942853 204.25765721 -12.01804328 202.06860727 C-12.04431214 194.85825725 -12.05957591 187.64790128 -12.07382941 180.43751901 C-12.07918712 177.95963659 -12.08456462 175.4817542 -12.08996177 173.00387186 C-12.11159776 162.69952136 -12.13033591 152.39517247 -12.14158416 142.09080499 C-12.14451398 139.4151979 -12.14747562 136.73959085 -12.15048957 134.06398386 C-12.15123562 133.39895382 -12.15198167 132.73392378 -12.15275033 132.04874131 C-12.16540391 121.27563564 -12.19862509 110.50269501 -12.2402914 99.7296665 C-12.28269833 88.67469649 -12.30587009 77.61981534 -12.31150472 66.56476516 C-12.31516519 60.355531 -12.32726031 54.14657642 -12.35960746 47.93741983 C-12.38959839 42.09662035 -12.39603184 36.25627091 -12.3842237 30.41541094 C-12.38400221 28.26956693 -12.39236904 26.12370259 -12.40987754 23.97793001 C-12.43245698 21.05178306 -12.42432614 18.12728348 -12.40839362 15.20112985 C-12.42227571 14.34869471 -12.4361578 13.49625957 -12.45046055 12.61799306 C-12.39136383 8.22352601 -12.22445738 6.65520651 -9.32489181 3.13686365 C-8.49180684 2.47811117 -7.65872188 1.81935869 -6.80039191 1.14064401 C-4.9746122 -0.6851357 -2.43086953 0.0113183 0 0 Z " fill="#FEFEFE" transform="translate(701.8003919124603,108.85935598611832)"/>
<path d="M0 0 C1.11547438 -0.00352835 1.11547438 -0.00352835 2.25348359 -0.00712797 C4.76522228 -0.01382711 7.27690935 -0.01335947 9.78865623 -0.01294994 C11.59974413 -0.016248 13.41083129 -0.01997345 15.22191751 -0.02409142 C20.21445752 -0.03412619 25.20698551 -0.03783059 30.19953418 -0.04048073 C35.57803215 -0.04437942 40.95652056 -0.05395807 46.33501244 -0.0626936 C59.33206316 -0.08247055 72.32911469 -0.09252587 85.3261767 -0.10142139 C91.44365875 -0.10580236 97.56113993 -0.11116967 103.67862129 -0.11641026 C124.00943446 -0.13342392 144.34024709 -0.14791862 164.67106628 -0.155159 C169.94890023 -0.15706896 175.22673417 -0.15898928 180.5045681 -0.16094494 C181.8163813 -0.16142868 183.1281945 -0.16191242 184.47975962 -0.16241082 C205.73545473 -0.17071304 226.99109359 -0.1960526 248.24676414 -0.22852562 C270.05953308 -0.26157858 291.87227342 -0.27960617 313.68506753 -0.28280324 C325.93617131 -0.28496999 338.18719308 -0.2937428 350.43827248 -0.31926441 C360.87090516 -0.34094732 371.30343593 -0.34903369 381.73608859 -0.33929763 C387.05970459 -0.33474594 392.38311018 -0.33668974 397.70669746 -0.35605907 C402.581183 -0.37364133 407.45530387 -0.3727331 412.32979302 -0.35716178 C414.09230576 -0.3547782 415.85484342 -0.35914803 417.61731799 -0.37099043 C428.25043983 -0.43800531 435.97292368 0.3344402 445.03435326 6.25922108 C450.12379659 11.58000274 453.04463957 17.26643297 453.34685326 24.69672108 C452.93465995 32.80318944 449.540195 39.50919392 443.78435326 45.13422108 C437.80882473 48.78983853 432.57681488 50.28348114 425.58432388 50.26564884 C424.47138206 50.26872779 424.47138206 50.26872779 423.33595657 50.27186894 C420.82995935 50.27755913 418.32401673 50.27607921 415.81801414 50.27466297 C414.01105121 50.27724546 412.20408884 50.28025829 410.39712727 50.28366637 C405.41598709 50.29175346 400.4348613 50.2935269 395.45371532 50.29426384 C390.08748867 50.29611146 384.72126954 50.30365736 379.35504723 50.31039906 C367.61326053 50.32399554 355.87147723 50.33000929 344.12968397 50.33440971 C336.80054432 50.3371702 329.47140599 50.34140722 322.14226723 50.34591389 C301.85777621 50.35810881 281.57328626 50.36840733 261.28879166 50.37178898 C259.98987974 50.37200854 258.69096782 50.37222811 257.35269494 50.37245433 C256.0506362 50.37267261 254.74857747 50.37289089 253.40706241 50.37311578 C250.76850311 50.37355925 248.12994381 50.37400581 245.49138451 50.37445545 C244.18256192 50.37467688 242.87373933 50.37489831 241.52525546 50.37512645 C220.31807035 50.37907437 199.11091961 50.39652721 177.90374778 50.41981497 C156.14069915 50.44352059 134.37766777 50.45599049 112.61460602 50.4571569 C100.39146436 50.45807416 88.16836746 50.46383927 75.94523811 50.48197651 C65.53640486 50.4973669 55.12763018 50.50250426 44.71878771 50.49423841 C39.40735886 50.49032801 34.09604802 50.49128054 28.78463364 50.50529575 C23.92130187 50.51801129 19.05817707 50.51685773 14.19484569 50.50470504 C12.43637306 50.50274397 10.67788588 50.5058454 8.9194337 50.5145494 C-10.96247746 50.60672225 -10.96247746 50.60672225 -18.52814674 44.82172108 C-24.37730077 38.97256705 -27.15907687 33.03097696 -27.59064674 24.75922108 C-27.39392152 17.0607075 -23.62678042 10.42237444 -18.21564674 5.13422108 C-12.23486187 1.47538798 -6.99831477 -0.01492953 0 0 Z " fill="#ECEDEF" transform="translate(747.2156467437744,198.86577892303467)"/>
<path d="M0 0 C1.28195 -0.01029488 1.28195 -0.01029488 2.58979797 -0.02079773 C5.39809062 -0.03900874 8.20582147 -0.03523597 11.01416016 -0.02954102 C12.97799866 -0.03410595 14.94183556 -0.03941245 16.90567017 -0.04542542 C21.01611837 -0.05434565 25.12637218 -0.05194622 29.23681641 -0.04199219 C34.48788095 -0.03051123 39.73827215 -0.05070632 44.98924828 -0.07990932 C49.04377461 -0.09831299 53.09814087 -0.09797043 57.15269852 -0.0922718 C59.08786589 -0.09211906 61.02304444 -0.09812434 62.95817184 -0.11056328 C65.67175467 -0.12554832 68.38411013 -0.1147412 71.09765625 -0.09765625 C72.28094765 -0.1121582 72.28094765 -0.1121582 73.48814392 -0.12695312 C80.78604187 -0.03140388 86.38050183 2.57477373 92.42822266 6.52905273 C97.51766599 11.8498344 100.43850897 17.53626463 100.74072266 24.96655273 C100.32852935 33.07302109 96.9340644 39.77902558 91.17822266 45.40405273 C84.79886882 49.30671626 79.27646654 50.55753439 71.82641602 50.59692383 C70.54775162 50.60919006 70.54775162 50.60919006 69.24325562 50.6217041 C66.41819963 50.64654164 63.59319401 50.66307374 60.76806641 50.67749023 C59.80140108 50.68281391 58.83473576 50.68813759 57.83877754 50.69362259 C52.71796588 50.72035248 47.59717854 50.73972422 42.47631836 50.75415039 C38.24823258 50.76746668 34.02063204 50.79527696 29.79272461 50.83618164 C24.67987254 50.88564517 19.56745923 50.91028885 14.45437813 50.91737747 C12.51162491 50.92406838 10.56888064 50.93923378 8.62626457 50.96326828 C-12.44251802 51.2089741 -12.44251802 51.2089741 -20.70082092 43.69418335 C-25.88194708 38.36619901 -27.9295869 32.35682147 -28.32177734 25.02905273 C-28.10367884 18.19213886 -25.71643094 12.6631164 -21.17724609 7.55249023 C-14.78469933 1.69385821 -8.4571457 -0.04801443 0 0 Z " fill="#FE574A" transform="translate(1099.82177734375,198.595947265625)"/>
<path d="M0 0 C5.28 0 10.56 0 16 0 C16.08063171 3.62544051 16.14032292 7.24910455 16.1875 10.875 C16.21263672 11.90753906 16.23777344 12.94007813 16.26367188 14.00390625 C16.27333984 14.99003906 16.28300781 15.97617188 16.29296875 16.9921875 C16.3086792 17.90339355 16.32438965 18.81459961 16.34057617 19.75341797 C16.22818604 20.49479004 16.1157959 21.23616211 16 22 C12.20836973 24.52775351 9.19125969 24.22443035 4.8125 24.125 C4.06291016 24.11597656 3.31332031 24.10695312 2.54101562 24.09765625 C0.69387346 24.07412578 -1.15310412 24.03825561 -3 24 C-4.17700048 19.37540756 -4.11408412 14.92133538 -4.0625 10.1875 C-4.05573242 9.00510742 -4.05573242 9.00510742 -4.04882812 7.79882812 C-4.03711312 5.86585239 -4.01917998 3.93291607 -4 2 C-2.68 2 -1.36 2 0 2 C0 1.34 0 0.68 0 0 Z " fill="#EBE4D1" transform="translate(853,152)"/>
<path d="M0 0 C9.01162791 -0.60077519 9.01162791 -0.60077519 13.1875 1.9375 C15.3984066 5.67316978 15.2940091 7.71423478 14.78515625 11.9140625 C13.73409998 14.70642095 12.6039434 15.57435223 10 17 C7.421875 17.29296875 7.421875 17.29296875 4.75 17.1875 C3.1825 17.125625 1.615 17.06375 0 17 C0 11.39 0 5.78 0 0 Z " fill="#31336B" transform="translate(757,155)"/>
<path d="M0 0 C2.375 1.625 2.375 1.625 4 4 C3.93521587 7.17442218 3.46700625 9.19571146 1.875 11.9375 C-1.22905831 13.69646638 -3.66320548 12.84936588 -7 12 C-9.31361802 8.52957297 -9.51020728 7.08165827 -9 3 C-6.31164707 0.01294119 -3.93697301 -0.68897028 0 0 Z " fill="#37386F" transform="translate(743,159)"/>
<path d="M0 0 C1.875 1.0625 1.875 1.0625 3 3 C3.4375 6.5 3.4375 6.5 3 10 C0.89172636 12.42061048 -0.40345478 12.9127007 -3.5625 13.375 C-6 13 -6 13 -7.8125 11.9375 C-9.67036623 8.90624457 -9.37133265 6.46577141 -9 3 C-6.84332735 -0.71426957 -4.0099826 -0.50124783 0 0 Z " fill="#493867" transform="translate(783,159)"/>
<path d="M0 0 C1.32 0 2.64 0 4 0 C4 6.6 4 13.2 4 20 C8.29 20 12.58 20 17 20 C17 20.66 17 21.32 17 22 C11.72 22 6.44 22 1 22 C0.31445965 18.57229824 -0.12324755 16.14542877 -0.09765625 12.79296875 C-0.09443359 12.04208984 -0.09121094 11.29121094 -0.08789062 10.51757812 C-0.07951172 9.74865234 -0.07113281 8.97972656 -0.0625 8.1875 C-0.05573242 7.00510742 -0.05573242 7.00510742 -0.04882812 5.79882812 C-0.03711312 3.86585239 -0.01917998 1.93291607 0 0 Z " fill="#FFD4C7" transform="translate(849,154)"/>
<path d="M0 0 C1.32 0 2.64 0 4 0 C4 4.62 4 9.24 4 14 C6.64 14 9.28 14 12 14 C12 14.99 12 15.98 12 17 C8.04 17 4.08 17 0 17 C0 11.39 0 5.78 0 0 Z " fill="#374473" transform="translate(796,155)"/>
<path d="M0 0 C0.33 0.99 0.66 1.98 1 3 C-1.38564077 2.42415568 -3.66682784 1.77772405 -6 1 C-4.37633534 4.24732932 -1.24612161 4.70155136 2 6 C1.42655063 8.86724686 1.1385485 9.8614515 -1 12 C-4.125 12.125 -4.125 12.125 -7 12 C-7.66 10.68 -8.32 9.36 -9 8 C-6.69 8.66 -4.38 9.32 -2 10 C-2 9.01 -2 8.02 -2 7 C-2.969375 6.855625 -3.93875 6.71125 -4.9375 6.5625 C-8 6 -8 6 -9 5 C-9.04063832 3.33382885 -9.042721 1.66611905 -9 0 C-5.93109813 -1.53445094 -3.29905734 -0.54984289 0 0 Z " fill="#2F3771" transform="translate(826,160)"/>
<path d="M0 0 C5.75 -0.125 5.75 -0.125 8 1 C8 3.97 8 6.94 8 10 C5.29120665 11.35439668 2.99066732 11.06501451 0 11 C0 7.37 0 3.74 0 0 Z " fill="#E8EFF2" transform="translate(760,158)"/>
<path d="M0 0 C4.29 0 8.58 0 13 0 C13 0.99 13 1.98 13 3 C11.35 3 9.7 3 8 3 C8 7.62 8 12.24 8 17 C7.01 17 6.02 17 5 17 C5 12.38 5 7.76 5 3 C3.35 3 1.7 3 0 3 C0 2.01 0 1.02 0 0 Z " fill="#162F74" transform="translate(722,155)"/>
<path d="M0 0 C0.66 0 1.32 0 2 0 C2 3.96 2 7.92 2 12 C0.02 12 -1.96 12 -4 12 C-6 10 -6 10 -6.25 7.5 C-6 5 -6 5 -4 3 C-2.68 3 -1.36 3 0 3 C0 2.01 0 1.02 0 0 Z " fill="#FFEBEA" transform="translate(1147,217)"/>
<path d="M0 0 C0.66 0 1.32 0 2 0 C2 3.96 2 7.92 2 12 C0.02 12 -1.96 12 -4 12 C-5 11 -5 11 -5.0625 7.4375 C-5.041875 6.303125 -5.02125 5.16875 -5 4 C-3.35 3.67 -1.7 3.34 0 3 C0 2.01 0 1.02 0 0 Z " fill="#FFE6ED" transform="translate(1138,217)"/>
<path d="M0 0 C0.66 0 1.32 0 2 0 C2 0.99 2 1.98 2 3 C2.66 3 3.32 3 4 3 C4 3.99 4 4.98 4 6 C3.34 6 2.68 6 2 6 C2 8.31 2 10.62 2 13 C2.99 13 3.98 13 5 13 C5 13.99 5 14.98 5 16 C3.33388095 16.042721 1.66617115 16.04063832 0 16 C-1 15 -1 15 -1.09765625 12.93359375 C-1.08025391 11.69802734 -1.08025391 11.69802734 -1.0625 10.4375 C-1.05347656 9.61121094 -1.04445313 8.78492188 -1.03515625 7.93359375 C-1.02355469 7.29550781 -1.01195312 6.65742188 -1 6 C-1.66 6 -2.32 6 -3 6 C-3 5.01 -3 4.02 -3 3 C-2.34 3 -1.68 3 -1 3 C-0.67 2.01 -0.34 1.02 0 0 Z " fill="#2F2C6C" transform="translate(832,156)"/>
<path d="M0 0 C0.99 0 1.98 0 3 0 C3.6708712 1.6232687 4.33657029 3.24867578 5 4.875 C5.556875 6.23238281 5.556875 6.23238281 6.125 7.6171875 C7 10 7 10 7 12 C6.34 12 5.68 12 5 12 C4.67 10.68 4.34 9.36 4 8 C2.35 8 0.7 8 -1 8 C-1.33 9.32 -1.66 10.64 -2 12 C-2.66 12 -3.32 12 -4 12 C-3.52309796 10.37433394 -3.04340334 8.74948689 -2.5625 7.125 C-2.29566406 6.22007812 -2.02882813 5.31515625 -1.75390625 4.3828125 C-1 2 -1 2 0 0 Z " fill="#FFEBE9" transform="translate(1125,217)"/>
<path d="M0 0 C0.99 0 1.98 0 3 0 C3 6.27 3 12.54 3 19 C2.01 18.67 1.02 18.34 0 18 C0 12.06 0 6.12 0 0 Z " fill="#F4B973" transform="translate(872,156)"/>
<path d="M0 0 C0.66 0 1.32 0 2 0 C2 3.3 2 6.6 2 10 C0.35 10 -1.3 10 -3 10 C-4 9 -4 9 -4.0625 6.4375 C-4.041875 5.633125 -4.02125 4.82875 -4 4 C-2.68 3.67 -1.36 3.34 0 3 C0 2.01 0 1.02 0 0 Z " fill="#ABA7AB" transform="translate(771,219)"/>
<path d="M0 0 C0.66 0 1.32 0 2 0 C2 3.3 2 6.6 2 10 C0.35 10 -1.3 10 -3 10 C-4 9 -4 9 -4.0625 6.4375 C-4.041875 5.633125 -4.02125 4.82875 -4 4 C-2.68 3.67 -1.36 3.34 0 3 C0 2.01 0 1.02 0 0 Z " fill="#A7AAB1" transform="translate(764,219)"/>
<path d="M0 0 C2.4375 0.8125 2.4375 0.8125 4.4375 2.8125 C4.5625 6.4375 4.5625 6.4375 4.4375 9.8125 C2.48533565 7.86033565 1.58923355 6.28050047 0.4375 3.8125 C-0.8825 3.8125 -2.2025 3.8125 -3.5625 3.8125 C-3.8925 5.1325 -4.2225 6.4525 -4.5625 7.8125 C-5.2225 7.8125 -5.8825 7.8125 -6.5625 7.8125 C-6.20053085 5.13392828 -5.82262724 3.20269086 -4.3125 0.9375 C-2.5625 -0.1875 -2.5625 -0.1875 0 0 Z " fill="#1D286B" transform="translate(781.5625,159.1875)"/>
<path d="M0 0 C0.99 0.33 1.98 0.66 3 1 C3.94921875 3.06640625 3.94921875 3.06640625 4.6875 5.5625 C5.06455078 6.80193359 5.06455078 6.80193359 5.44921875 8.06640625 C5.63097656 8.70449219 5.81273437 9.34257812 6 10 C5.34 10 4.68 10 4 10 C4 9.01 4 8.02 4 7 C2.35 7 0.7 7 -1 7 C-1 7.99 -1 8.98 -1 10 C-1.66 10 -2.32 10 -3 10 C-2.01 6.7 -1.02 3.4 0 0 Z " fill="#A19FA7" transform="translate(753,219)"/>
<path d="M0 0 C0.66 0 1.32 0 2 0 C3.06546953 3.1964086 3.07427838 5.65747276 3 9 C2.01 9 1.02 9 0 9 C0 7.02 0 5.04 0 3 C-0.66 3 -1.32 3 -2 3 C-1.67 4.98 -1.34 6.96 -1 9 C-1.66 9 -2.32 9 -3 9 C-3 8.34 -3 7.68 -3 7 C-3.66 7 -4.32 7 -5 7 C-5.66 5.35 -6.32 3.7 -7 2 C-4.66666667 2 -2.33333333 2 0 2 C0 1.34 0 0.68 0 0 Z " fill="#969399" transform="translate(829,220)"/>
<path d="M0 0 C0.99 0 1.98 0 3 0 C3 4.29 3 8.58 3 13 C2.01 13 1.02 13 0 13 C0 8.71 0 4.42 0 0 Z " fill="#16377E" transform="translate(811,159)"/>
<path d="M0 0 C1.67542976 0.28604898 3.34385343 0.61781233 5 1 C5 2.65 5 4.3 5 6 C3.34385343 6.38218767 1.67542976 6.71395102 0 7 C-1 6 -1 6 -1.125 3.5 C-1 1 -1 1 0 0 Z " fill="#E6EEEF" transform="translate(778,162)"/>
<path d="M0 0 C0.66 0 1.32 0 2 0 C2.33 1.65 2.66 3.3 3 5 C4.98 5.66 6.96 6.32 9 7 C9 7.99 9 8.98 9 10 C4.25 9.125 4.25 9.125 2 8 C1.67 8.66 1.34 9.32 1 10 C0.22157062 6.59437148 -0.09978121 3.49234244 0 0 Z " fill="#F1E8DF" transform="translate(815,160)"/>
<path d="M0 0 C2.0625 0.4375 2.0625 0.4375 4 1 C4 2.65 4 4.3 4 6 C2.125 6.625 2.125 6.625 0 7 C-0.66 6.34 -1.32 5.68 -2 5 C-1.46428571 1.46428571 -1.46428571 1.46428571 0 0 Z " fill="#F2F7F7" transform="translate(739,162)"/>
<path d="M0 0 C1.67542976 0.28604898 3.34385343 0.61781233 5 1 C5 1.99 5 2.98 5 4 C4.01 4.495 4.01 4.495 3 5 C3.66 5.33 4.32 5.66 5 6 C3.34385343 6.38218767 1.67542976 6.71395102 0 7 C-1 6 -1 6 -1.125 3.5 C-1 1 -1 1 0 0 Z " fill="#9F999B" transform="translate(816,222)"/>
<path d="M0 0 C0.99 0.33 1.98 0.66 3 1 C3 2.65 3 4.3 3 6 C1.68 6 0.36 6 -1 6 C-1.042721 4.33388095 -1.04063832 2.66617115 -1 1 C-0.67 0.67 -0.34 0.34 0 0 Z " fill="#FF5F50" transform="translate(1144,221)"/>
<path d="M0 0 C0.99 0 1.98 0 3 0 C3 2.31 3 4.62 3 7 C2.01 7 1.02 7 0 7 C-1.125 2.25 -1.125 2.25 0 0 Z " fill="#FFB3B1" transform="translate(1125,217)"/>
<path d="M0 0 C0.99 0.33 1.98 0.66 3 1 C3 2.65 3 4.3 3 6 C2.01 6.33 1.02 6.66 0 7 C-1.125 2.25 -1.125 2.25 0 0 Z " fill="#FF6E4A" transform="translate(1135,221)"/>
<path d="M0 0 C7.75 0.875 7.75 0.875 10 2 C8 4 8 4 4.875 4.125 C3.92625 4.08375 2.9775 4.0425 2 4 C1.34 2.68 0.68 1.36 0 0 Z " fill="#282C6A" transform="translate(817,168)"/>
<path d="M0 0 C2.64 0 5.28 0 8 0 C8 0.66 8 1.32 8 2 C5.36 2.33 2.72 2.66 0 3 C0 2.01 0 1.02 0 0 Z " fill="#D6C1C5" transform="translate(859,161)"/>
<path d="M0 0 C0.99 0 1.98 0 3 0 C2.67 4.29 2.34 8.58 2 13 C1.67 13 1.34 13 1 13 C0.67 8.71 0.34 4.42 0 0 Z " fill="#D8A256" transform="translate(872,156)"/>
<path d="M0 0 C0 1.65 0 3.3 0 5 C-0.99 5 -1.98 5 -3 5 C-3 4.34 -3 3.68 -3 3 C-4.32 3.33 -5.64 3.66 -7 4 C-7.33 3.34 -7.66 2.68 -8 2 C-1.125 0 -1.125 0 0 0 Z " fill="#D7D7D5" transform="translate(824,224)"/>
<path d="M0 0 C1.98 0 3.96 0 6 0 C6 0.99 6 1.98 6 3 C4.02 3 2.04 3 0 3 C0 2.01 0 1.02 0 0 Z " fill="#162263" transform="translate(749,164)"/>
</svg>
